<svg width="20" height="20" viewBox="0 0 20 20" fill="none" xmlns="http://www.w3.org/2000/svg">
<path d="M10.0002 2.66666C12.5197 2.66666 14.7438 3.9374 16.0645 5.875H13.6668V7.70833H19.1668V2.20833H17.3335V4.49941C15.6617 2.27402 12.9999 0.833328 10.0002 0.833328C4.93755 0.833328 0.833496 4.93738 0.833496 10H2.66683C2.66683 5.9499 5.95007 2.66666 10.0002 2.66666ZM17.3335 10C17.3335 14.0501 14.0503 17.3333 10.0002 17.3333C7.48065 17.3333 5.25649 16.0626 3.93589 14.125H6.3335V12.2917H0.833496V17.7917H2.66683V15.5005C4.33866 17.7259 7.0005 19.1667 10.0002 19.1667C15.0627 19.1667 19.1668 15.0626 19.1668 10H17.3335Z" fill="#D9282F"/>
</svg>
