<svg width="24" height="24" viewBox="0 0 24 24" fill="none" xmlns="http://www.w3.org/2000/svg">
<path d="M12 24C18.6274 24 24 18.6274 24 12C24 5.37258 18.6274 0 12 0C5.37258 0 0 5.37258 0 12C0 18.6274 5.37258 24 12 24Z" fill="#F99941"/>
<path d="M7.3999 12.24C8.50447 12.24 9.3999 11.3446 9.3999 10.24C9.3999 9.13542 8.50447 8.23999 7.3999 8.23999C6.29533 8.23999 5.3999 9.13542 5.3999 10.24C5.3999 11.3446 6.29533 12.24 7.3999 12.24Z" fill="white"/>
<path d="M16.6001 12.24C17.7047 12.24 18.6001 11.3446 18.6001 10.24C18.6001 9.13542 17.7047 8.23999 16.6001 8.23999C15.4955 8.23999 14.6001 9.13542 14.6001 10.24C14.6001 11.3446 15.4955 12.24 16.6001 12.24Z" fill="white"/>
<path d="M14.76 18.4H9.24004C8.64004 18.4 8.64004 16.8 9.24004 16.8H14.72C15.36 16.8 15.36 18.4 14.76 18.4Z" fill="white"/>
</svg>
