<svg width="24" height="24" viewBox="0 0 24 24" fill="none" xmlns="http://www.w3.org/2000/svg">
<path d="M12 24C18.6274 24 24 18.6274 24 12C24 5.37258 18.6274 0 12 0C5.37258 0 0 5.37258 0 12C0 18.6274 5.37258 24 12 24Z" fill="#D9282F"/>
<path d="M7.3999 11.0394C8.50447 11.0394 9.3999 10.144 9.3999 9.03944C9.3999 7.93487 8.50447 7.03944 7.3999 7.03944C6.29533 7.03944 5.3999 7.93487 5.3999 9.03944C5.3999 10.144 6.29533 11.0394 7.3999 11.0394Z" fill="#F0F0F0"/>
<path d="M16.5991 11.0391C17.7037 11.0391 18.5991 10.1437 18.5991 9.03911C18.5991 7.93454 17.7037 7.03911 16.5991 7.03911C15.4946 7.03911 14.5991 7.93454 14.5991 9.03911C14.5991 10.1437 15.4946 11.0391 16.5991 11.0391Z" fill="#F0F0F0"/>
<path d="M6.95964 17.5197C10.1996 15.2397 13.7996 15.2797 17.0396 17.5197C17.4396 17.7997 17.7596 17.3197 17.5196 16.8797C16.5196 15.2797 14.5596 13.7997 11.9996 13.7997C9.43964 13.7997 7.47964 15.2397 6.47964 16.8797C6.23964 17.3197 6.55964 17.7997 6.95964 17.5197Z" fill="#F0F0F0"/>
</svg>
