<svg width="16" height="18" viewBox="0 0 16 18" fill="none" xmlns="http://www.w3.org/2000/svg">
<path d="M10.8125 7.875V4.5C10.8125 3.75408 10.5162 3.03871 9.98873 2.51126C9.46128 1.98382 8.74591 1.6875 7.99999 1.6875C7.25407 1.6875 6.5387 1.98382 6.01125 2.51126C5.4838 3.03871 5.18749 3.75408 5.18749 4.5V7.875M13.7045 6.38025L14.6517 15.3802C14.7042 15.879 14.3142 16.3125 13.8125 16.3125H2.18749C2.06914 16.3126 1.9521 16.2879 1.84395 16.2398C1.7358 16.1917 1.63898 16.1215 1.55976 16.0336C1.48054 15.9456 1.4207 15.842 1.38413 15.7295C1.34756 15.6169 1.33508 15.4979 1.34749 15.3802L2.29549 6.38025C2.31736 6.17292 2.41521 5.98103 2.57018 5.84157C2.72515 5.70211 2.92626 5.62496 3.13474 5.625H12.8652C13.2972 5.625 13.6595 5.95125 13.7045 6.38025ZM5.46874 7.875C5.46874 7.94959 5.43911 8.02113 5.38636 8.07387C5.33362 8.12662 5.26208 8.15625 5.18749 8.15625C5.1129 8.15625 5.04136 8.12662 4.98862 8.07387C4.93587 8.02113 4.90624 7.94959 4.90624 7.875C4.90624 7.80041 4.93587 7.72887 4.98862 7.67613C5.04136 7.62338 5.1129 7.59375 5.18749 7.59375C5.26208 7.59375 5.33362 7.62338 5.38636 7.67613C5.43911 7.72887 5.46874 7.80041 5.46874 7.875ZM11.0937 7.875C11.0937 7.94959 11.0641 8.02113 11.0114 8.07387C10.9586 8.12662 10.8871 8.15625 10.8125 8.15625C10.7379 8.15625 10.6664 8.12662 10.6136 8.07387C10.5609 8.02113 10.5312 7.94959 10.5312 7.875C10.5312 7.80041 10.5609 7.72887 10.6136 7.67613C10.6664 7.62338 10.7379 7.59375 10.8125 7.59375C10.8871 7.59375 10.9586 7.62338 11.0114 7.67613C11.0641 7.72887 11.0937 7.80041 11.0937 7.875Z" stroke="#0D1330" stroke-width="1.5" stroke-linecap="round" stroke-linejoin="round"/>
</svg>
