<svg width="284" height="284" viewBox="0 0 284 284" fill="none" xmlns="http://www.w3.org/2000/svg">
<path d="M154.019 215.13H94.8616V260.757H154.019V215.13Z" fill="#EBEBEB"/>
<path d="M139.2 260.44C139.12 260.44 139.052 250.267 139.052 237.72C139.052 225.172 139.12 215 139.2 215C139.279 215 139.347 225.172 139.347 237.72C139.347 250.267 139.279 260.44 139.2 260.44Z" fill="#E0E0E0"/>
<path d="M149.003 250.375H144.471V255.504H149.003V250.375Z" fill="#FAFAFA"/>
<path d="M119.632 215.249H112.913V224.985H119.632V215.249Z" fill="#E0E0E0"/>
<path d="M119.632 250.886H112.913V260.621H119.632V250.886Z" fill="#E0E0E0"/>
<path d="M261.365 203.69H186.77V261.223H261.365V203.69Z" fill="#EBEBEB"/>
<path d="M242.672 260.814C242.593 260.814 242.525 247.994 242.525 232.176C242.525 216.357 242.593 203.537 242.672 203.537C242.752 203.537 242.82 216.357 242.82 232.176C242.82 247.994 242.758 260.814 242.672 260.814Z" fill="#E0E0E0"/>
<path d="M255.038 248.125H249.318V254.589H255.038V248.125Z" fill="#FAFAFA"/>
<path d="M217.998 203.838H209.524V216.113H217.998V203.838Z" fill="#E0E0E0"/>
<path d="M217.998 248.772H209.524V261.047H217.998V248.772Z" fill="#E0E0E0"/>
<path d="M46.2692 205.383C49.291 203.827 52.8467 203.622 56.1979 204.179C57.9984 204.474 59.8728 205.014 61.0997 206.366C62.3266 207.717 62.5538 210.097 61.1508 211.262C60.3102 211.955 59.1458 212.057 58.0552 212.046C55.4311 212.011 52.5229 211.551 50.427 213.13C49.2285 214.034 48.4333 215.527 47.019 215.97C45.6047 216.413 44.0427 215.578 43.3043 214.318C42.6211 213.002 42.4706 211.475 42.884 210.052C43.0512 209.066 43.4436 208.131 44.0308 207.322C44.6179 206.512 45.3839 205.848 46.2692 205.383Z" fill="#EBEBEB"/>
<path d="M39.351 192.029C41.197 194.665 44.7868 193.796 46.451 192.183C48.1152 190.57 48.8196 188.241 49.4557 186.02C50.9212 180.936 52.3923 175.603 51.3074 170.428C51.0462 168.859 50.3562 167.393 49.3137 166.191C48.7859 165.601 48.1131 165.159 47.3619 164.909C46.6107 164.659 45.8072 164.609 45.031 164.765C43.2191 165.243 42.0944 167.037 41.2822 168.702C38.8874 173.677 37.6338 179.124 37.6129 184.645C37.6129 187.218 37.9026 189.911 39.351 192.029Z" fill="#EBEBEB"/>
<path d="M34.2844 195.813C36.2895 193.433 36.67 189.968 35.7783 186.986C34.8865 184.004 32.8701 181.471 30.547 179.397C27.8147 176.967 24.6353 175.092 21.1863 173.876C19.8496 173.336 18.4118 173.092 16.9718 173.161C16.2534 173.202 15.556 173.418 14.9402 173.79C14.3244 174.162 13.809 174.679 13.4388 175.296C12.4505 177.176 13.3991 179.454 14.4215 181.317C16.2219 184.595 18.2768 187.727 20.5672 190.683C22.4132 193.058 24.5432 195.404 27.3321 196.477C30.121 197.551 33.0632 197.426 34.5514 195.477" fill="#EBEBEB"/>
<path d="M39.226 231.801C39.3246 231.41 39.3817 231.01 39.3964 230.608C39.4816 229.733 39.5838 228.637 39.7145 227.336C39.8773 225.727 40.1218 224.127 40.4472 222.542C40.874 220.605 41.4571 218.705 42.1909 216.862C42.9106 215.031 43.8838 213.31 45.0821 211.75C46.0616 210.481 47.3086 209.444 48.7343 208.711C49.7039 208.233 50.7429 207.911 51.8129 207.757C52.2156 207.741 52.6155 207.682 53.0057 207.581C52.6036 207.537 52.1979 207.537 51.7958 207.581C50.6847 207.665 49.5977 207.948 48.5866 208.416C47.0811 209.126 45.7608 210.176 44.7299 211.483C43.4759 213.064 42.465 214.824 41.7309 216.703C40.9979 218.568 40.4278 220.493 40.0269 222.457C39.7178 224.062 39.5035 225.683 39.385 227.313C39.2828 228.705 39.243 229.83 39.226 230.608C39.1841 231.004 39.1841 231.404 39.226 231.801Z" fill="#E0E0E0"/>
<path d="M39.4532 229.29C39.4869 229.103 39.4984 228.912 39.4873 228.722C39.4873 228.302 39.4873 227.774 39.4873 227.132C39.4873 225.752 39.4873 223.752 39.5555 221.287C39.6804 216.357 40.1235 211.063 40.9243 203.571C41.7025 196.534 42.7419 188.349 43.8439 183.027C44.0767 181.817 44.3153 180.726 44.5425 179.772C44.7697 178.818 44.9344 177.988 45.1105 177.324C45.2866 176.659 45.3831 176.188 45.4854 175.779C45.541 175.594 45.5734 175.404 45.5819 175.211C45.4964 175.377 45.4315 175.552 45.3888 175.734C45.2639 176.137 45.1105 176.637 44.9231 177.256C44.7356 177.875 44.5084 178.738 44.2699 179.687C44.0313 180.635 43.7587 181.726 43.5031 182.936C42.1386 189.23 41.1128 195.593 40.4302 201.998C39.6123 209.495 39.2431 216.323 39.209 221.264C39.209 223.735 39.209 225.74 39.2942 227.12C39.3339 227.762 39.368 228.291 39.3907 228.705C39.388 228.902 39.409 229.098 39.4532 229.29Z" fill="#E0E0E0"/>
<path d="M39.4874 216.124C39.5306 215.57 39.5306 215.014 39.4874 214.46C39.4249 213.392 39.2772 211.853 38.9762 209.961C38.6046 207.75 38.1078 205.562 37.488 203.407C36.7717 200.754 35.8545 198.161 34.7446 195.648C32.8442 191.017 30.1169 186.771 26.696 183.118C26.1025 182.49 25.4687 181.902 24.7989 181.357C24.5092 181.107 24.2309 180.863 23.9923 180.67L23.288 180.164C22.8459 179.827 22.3767 179.526 21.885 179.267C21.8055 179.375 23.8674 180.59 26.4688 183.356C29.7778 187.044 32.4326 191.27 34.3186 195.852C35.4094 198.349 36.3298 200.916 37.0734 203.537C37.698 205.672 38.2155 207.837 38.624 210.024C38.9648 211.893 39.192 213.432 39.2829 214.477C39.3072 215.031 39.3755 215.581 39.4874 216.124Z" fill="#E0E0E0"/>
<path d="M25.8781 237.344L27.1958 255.424H50.4213L51.7391 237.344H25.8781Z" fill="#EBEBEB"/>
<path d="M54.5052 230.222H23.6344V237.344H54.5052V230.222Z" fill="#EBEBEB"/>
<path d="M23.6344 254.731V256.702H25.0885H53.9997V254.731H23.6344Z" fill="#E0E0E0"/>
<path d="M26.5085 259.962L25.0885 256.486H52.8921L51.2335 259.962H26.5085Z" fill="#E0E0E0"/>
<path d="M51.3073 243.252C51.2783 243.313 51.2421 243.37 51.1994 243.422C51.1085 243.541 50.9893 243.695 50.8529 243.882L49.5011 245.586L49.4386 245.666L49.3818 245.586L46.059 240.991H46.2465L42.9748 245.62L42.8725 245.768L42.7589 245.632L38.8795 241.014H39.101L38.8909 241.286L35.4204 245.632L35.3011 245.779L35.1989 245.626L31.9215 240.997H32.1146L28.0818 245.586L28.0137 245.671L27.9569 245.575L26.6959 243.485C26.5596 243.257 26.4573 243.07 26.3721 242.917C26.3293 242.853 26.2949 242.784 26.2699 242.712C26.323 242.767 26.3689 242.828 26.4062 242.894L26.7641 243.433L28.0875 245.518H27.9625L31.9385 240.872L32.0351 240.753L32.126 240.877L35.4317 245.49H35.2159L38.675 241.133C38.7489 241.042 38.8227 240.951 38.8852 240.866L38.9988 240.724L39.1124 240.86L42.9805 245.49H42.7646L46.0704 240.883L46.1669 240.747L46.2578 240.883C47.5699 242.752 48.6832 244.337 49.5125 245.529H49.3932L50.8018 243.825C50.9552 243.649 51.0801 243.507 51.1767 243.388C51.2169 243.339 51.2605 243.294 51.3073 243.252Z" fill="#F5F5F5"/>
<path d="M52.0628 237.225C52.0628 237.305 46.2408 237.373 39.067 237.373C31.8932 237.373 26.0712 237.305 26.0712 237.225C26.0712 237.145 31.8875 237.083 39.067 237.083C46.2465 237.083 52.0628 237.145 52.0628 237.225Z" fill="#F5F5F5"/>
<path d="M214.944 32.2628L210.184 32.2886L210.312 55.9738L215.072 55.9481L214.944 32.2628Z" fill="#E0E0E0"/>
<path d="M181.274 32.3259L168.948 32.3926L169.019 45.4677L181.344 45.4011L181.274 32.3259Z" fill="#EBEBEB"/>
<path d="M193.542 32.2595L181.216 32.3262L181.287 45.4013L193.612 45.3347L193.542 32.2595Z" fill="#F5F5F5"/>
<path d="M168.963 36.0113C177.157 36.0795 185.355 36.0416 193.557 35.8977C193.592 35.8977 193.625 35.8839 193.65 35.8594C193.674 35.8349 193.688 35.8017 193.688 35.7671C193.688 35.7324 193.674 35.6992 193.65 35.6747C193.625 35.6502 193.592 35.6364 193.557 35.6364C185.367 35.591 177.153 35.6364 168.963 35.7898C168.938 35.7955 168.915 35.8096 168.899 35.8297C168.883 35.8498 168.875 35.8748 168.875 35.9005C168.875 35.9263 168.883 35.9513 168.899 35.9714C168.915 35.9915 168.938 36.0056 168.963 36.0113Z" fill="#E0E0E0"/>
<path d="M183.661 45.184L161.265 45.3052L161.322 55.9607L183.718 55.8395L183.661 45.184Z" fill="#EBEBEB"/>
<path d="M205.948 45.0634L183.552 45.1846L183.61 55.8401L206.006 55.7189L205.948 45.0634Z" fill="#F5F5F5"/>
<path d="M161.278 48.28C176.154 48.4448 191.081 48.28 205.962 48.0585C205.997 48.0585 206.03 48.0447 206.055 48.0202C206.079 47.9957 206.093 47.9625 206.093 47.9279C206.093 47.8932 206.079 47.86 206.055 47.8355C206.03 47.811 205.997 47.7972 205.962 47.7972C191.087 47.7177 176.154 47.7234 161.278 48.0528C161.248 48.0528 161.219 48.0648 161.198 48.0861C161.176 48.1074 161.164 48.1363 161.164 48.1664C161.164 48.1966 161.176 48.2255 161.198 48.2468C161.219 48.2681 161.248 48.28 161.278 48.28Z" fill="#E0E0E0"/>
<path d="M239.668 55.9707H152.9V59.7877H239.668V55.9707Z" fill="#E0E0E0"/>
<path d="M170.627 57.8052H167.106V70.8294H170.627V57.8052Z" fill="#E0E0E0"/>
<path d="M223.207 57.8052H219.685V70.8294H223.207V57.8052Z" fill="#E0E0E0"/>
<path d="M219.587 23.4283L214.828 23.4541L215.004 56.0284L219.764 56.0027L219.587 23.4283Z" fill="#EBEBEB"/>
<path d="M227.021 29.4942L219.626 29.5342L219.769 55.9344L227.164 55.8944L227.021 29.4942Z" fill="#F5F5F5"/>
<path d="M226.973 34.5914C224.514 34.765 222.047 34.765 219.589 34.5914C222.047 34.4253 224.514 34.4253 226.973 34.5914Z" fill="#E0E0E0"/>
<path d="M226.973 33.5121C225.744 33.6364 224.509 33.6781 223.275 33.637C222.041 33.6779 220.806 33.6362 219.577 33.5121C222.036 33.3384 224.503 33.3384 226.961 33.5121H226.973Z" fill="#E0E0E0"/>
<path d="M226.973 51.9322C224.514 52.1058 222.047 52.1058 219.589 51.9322C222.047 51.7661 224.514 51.7661 226.973 51.9322Z" fill="#E0E0E0"/>
<path d="M226.973 50.8246C224.514 50.9907 222.047 50.9907 219.589 50.8246C222.047 50.6509 224.514 50.6509 226.973 50.8246Z" fill="#E0E0E0"/>
<path d="M223.394 48.405C223.326 48.405 223.269 45.7411 223.269 42.458C223.269 39.175 223.326 36.5054 223.394 36.5054C223.463 36.5054 223.525 39.1693 223.525 42.458C223.525 45.7467 223.468 48.405 223.394 48.405Z" fill="#E0E0E0"/>
<path d="M235.107 35.9883H227.058V55.9137H235.107V35.9883Z" fill="#EBEBEB"/>
<path d="M217.135 30.3711C217.891 30.3711 218.504 29.7582 218.504 29.0022C218.504 28.2462 217.891 27.6333 217.135 27.6333C216.379 27.6333 215.766 28.2462 215.766 29.0022C215.766 29.7582 216.379 30.3711 217.135 30.3711Z" fill="#E0E0E0"/>
<path d="M217.561 32.7681H216.715V52.1482H217.561V32.7681Z" fill="#E0E0E0"/>
<path d="M263.927 260.911C263.927 260.996 209.331 261.059 142.006 261.059C74.6806 261.059 20.0731 260.996 20.0731 260.911C20.0731 260.826 74.6579 260.763 142.006 260.763C209.353 260.763 263.927 260.831 263.927 260.911Z" fill="#263238"/>
<path d="M84.7514 52.4551C87.43 55.7331 88.8803 59.8432 88.8523 64.0764C88.8239 66.4733 88.3809 69.1145 89.7782 71.0628C90.8346 72.5396 92.7658 73.2836 93.6235 74.8854C94.6573 76.8109 93.7769 79.2476 94.413 81.3379C95.3105 84.3028 98.7866 85.5468 100.848 87.8585C101.727 88.8808 102.342 90.1029 102.639 91.4179C102.936 92.733 102.907 94.1007 102.552 95.4016C102.177 96.697 101.498 97.884 100.571 98.864C99.6442 99.844 98.497 100.589 97.2246 101.036C95.8661 101.572 94.3506 101.547 93.0101 100.968C91.6185 100.275 90.7381 98.8493 90.0565 97.4577C88.6876 94.72 76.663 79.9236 75.9814 76.9359" fill="#263238"/>
<path d="M76.0041 48.9672C71.0853 48.172 66.3481 51.438 64.2863 55.9706C62.2245 60.5033 62.1563 65.6266 62.0143 70.625C61.8723 75.6234 61.5088 80.8036 58.9698 85.0863C57.3567 87.807 54.8575 90.1983 54.4656 93.328C54.1134 96.1339 55.5675 98.9626 55.0847 101.751C54.6644 104.182 52.8127 106.295 52.8865 108.755C52.9774 111.72 56.0276 113.952 58.9869 114.032C61.9461 114.111 64.718 112.56 67.0411 110.72C70.8261 107.715 73.8548 103.865 75.8849 99.4794" fill="#263238"/>
<path d="M67.9101 60.6908C67.7556 59.4535 67.8512 58.1977 68.1913 56.9981C68.5314 55.7984 69.1091 54.6793 69.89 53.7072C70.6709 52.735 71.6391 51.9297 72.7372 51.3389C73.8353 50.7481 75.0409 50.3839 76.2825 50.268C81.2411 49.7909 85.6545 53.4886 86.3985 58.4188C87.0517 62.7413 87.6084 67.1035 87.5913 68.6883C87.5289 73.4651 84.7513 75.3225 83.6153 75.8848C83.2067 76.0315 82.7842 76.1362 82.3544 76.1972V76.2313L83.4109 81.7182C83.8937 85.3136 81.8886 88.5342 78.2989 89.0397C74.7091 89.5452 71.8861 86.8018 71.3352 83.2063L67.9101 60.6908Z" fill="#FFBE9D"/>
<path d="M85.4216 60.5091C85.3421 60.6227 84.7116 60.2876 83.905 60.4069C83.0985 60.5261 82.5589 61.0146 82.4566 60.9294C82.3544 60.8442 82.4566 60.7022 82.7066 60.475C83.0171 60.1724 83.4141 59.9739 83.8426 59.907C84.2629 59.8422 84.6929 59.9139 85.0694 60.1115C85.3534 60.2933 85.4614 60.4637 85.4216 60.5091Z" fill="#263238"/>
<path d="M78.2307 62.2586C78.1512 62.3722 77.5207 62.0314 76.7084 62.1507C75.8962 62.27 75.368 62.7641 75.2657 62.6789C75.1635 62.5937 75.2657 62.4461 75.5156 62.2245C75.8262 61.922 76.2232 61.7235 76.6516 61.6565C77.0725 61.5966 77.5016 61.6701 77.8785 61.8667C78.1568 62.0428 78.2704 62.2075 78.2307 62.2586Z" fill="#263238"/>
<path d="M81.1786 66.5923C81.5849 66.3968 82.0144 66.2537 82.4566 66.1663C82.6611 66.1151 82.8486 66.047 82.8656 65.8993C82.8472 65.6918 82.7682 65.4942 82.6384 65.3313L81.7921 63.8204C80.6163 61.7075 79.7359 59.958 79.8211 59.9069C79.9063 59.8558 80.9571 61.5427 82.0931 63.6557C82.3828 64.1783 82.6611 64.6781 82.911 65.1495C83.0761 65.3805 83.1564 65.6614 83.1382 65.9447C83.1195 66.0222 83.0831 66.0944 83.0319 66.1554C82.9806 66.2165 82.9159 66.265 82.8429 66.2969C82.7321 66.3454 82.6157 66.3797 82.4964 66.3991C82.0675 66.5207 81.6244 66.5856 81.1786 66.5923Z" fill="#263238"/>
<path d="M82.309 76.2031C82.309 76.2031 79.2247 76.9131 74.9761 75.1353C74.9761 75.1353 76.8107 79.0829 82.5986 77.6799L82.309 76.2031Z" fill="#EB996E"/>
<path d="M77.8161 60.1399C77.7706 60.3728 76.947 60.3842 76.0155 60.6398C75.084 60.8954 74.3513 61.2589 74.1979 61.0828C74.1297 60.9976 74.232 60.7704 74.5103 60.5148C74.885 60.1943 75.3279 59.9632 75.8052 59.8392C76.2824 59.7153 76.7817 59.7015 77.2651 59.7991C77.64 59.8843 77.8161 60.032 77.8161 60.1399Z" fill="#263238"/>
<path d="M84.757 58.7202C84.6434 58.9247 84.0584 58.8168 83.3882 58.902C82.7179 58.9872 82.167 59.2087 82.0079 59.0326C81.9398 58.9474 82.0079 58.7543 82.2238 58.5441C82.5216 58.2801 82.8954 58.117 83.2916 58.0784C83.6828 58.0312 84.0791 58.1045 84.4276 58.2885C84.7002 58.4419 84.8082 58.618 84.757 58.7202Z" fill="#263238"/>
<path d="M76.4755 63.3036C76.488 63.3915 76.5178 63.476 76.5633 63.5523C76.6087 63.6286 76.6688 63.6951 76.7402 63.7479C76.8115 63.8008 76.8926 63.8389 76.9788 63.8601C77.065 63.8814 77.1546 63.8853 77.2423 63.8716C77.3276 63.8618 77.4101 63.8351 77.485 63.7931C77.5599 63.7511 77.6257 63.6946 77.6785 63.627C77.7314 63.5593 77.7702 63.4818 77.7929 63.399C77.8155 63.3162 77.8214 63.2297 77.8103 63.1445C77.7837 62.9677 77.688 62.8086 77.5443 62.7021C77.4006 62.5957 77.2205 62.5505 77.0435 62.5765C76.9579 62.5856 76.875 62.6118 76.7998 62.6536C76.7245 62.6954 76.6584 62.7518 76.6054 62.8197C76.5524 62.8875 76.5136 62.9653 76.4913 63.0484C76.469 63.1316 76.4636 63.2183 76.4755 63.3036Z" fill="#263238"/>
<path d="M83.638 61.7533C83.6647 61.9302 83.7603 62.0892 83.9041 62.1957C84.0478 62.3022 84.2279 62.3473 84.4048 62.3213C84.4901 62.3115 84.5726 62.2848 84.6475 62.2428C84.7223 62.2008 84.7881 62.1443 84.841 62.0767C84.8938 62.009 84.9327 61.9315 84.9553 61.8487C84.978 61.7659 84.9839 61.6794 84.9728 61.5943C84.9462 61.4174 84.8505 61.2583 84.7068 61.1518C84.563 61.0454 84.383 61.0002 84.206 61.0263C84.1204 61.0353 84.0375 61.0615 83.9622 61.1033C83.887 61.1451 83.8209 61.2015 83.7679 61.2694C83.7149 61.3372 83.6761 61.415 83.6538 61.4981C83.6315 61.5813 83.6261 61.668 83.638 61.7533Z" fill="#263238"/>
<path d="M82.4509 68.1604C82.2279 68.091 81.9877 68.1019 81.7719 68.1911C81.5561 68.2803 81.3783 68.4423 81.2694 68.6489C81.1655 68.8386 81.1232 69.056 81.1487 69.2708C81.1742 69.4857 81.266 69.6872 81.4114 69.8473C81.5663 69.9994 81.7701 70.0915 81.9865 70.1071C82.2029 70.1227 82.4179 70.0608 82.5929 69.9325C82.812 69.7331 82.9445 69.4559 82.9621 69.1601C83.0007 68.8889 82.9358 68.6131 82.7803 68.3876C82.7005 68.2773 82.5866 68.1964 82.4562 68.1574C82.3258 68.1184 82.1862 68.1234 82.059 68.1717" fill="#EB996E"/>
<path d="M85.7681 54.5281C85.3222 52.7285 84.2097 51.1653 82.6555 50.1545C81.3832 49.2356 79.872 48.7049 78.3046 48.6266C76.7274 48.5587 75.1875 49.1183 74.0219 50.1829C73.1947 51.0028 72.7217 52.1141 72.7041 53.2785L72.795 52.4833C72.5563 53.1304 72.5563 53.8413 72.795 54.4884C72.9256 54.8349 73.0847 55.187 73.221 55.5335C73.6276 56.5348 74.3819 57.3556 75.3453 57.8453C75.7816 58.0793 76.2702 58.1985 76.7653 58.1917C77.0131 58.1868 77.2569 58.1278 77.4796 58.0189C77.7023 57.91 77.8985 57.7538 78.0546 57.5613C78.4073 56.9456 78.5167 56.2202 78.3614 55.5278C78.7341 56.212 79.2659 56.7964 79.912 57.2318C80.2419 57.4426 80.6343 57.5334 81.0232 57.489C81.4122 57.4445 81.7739 57.2674 82.0477 56.9876C82.5134 56.4196 82.3317 55.5221 82.0477 54.8178C82.4871 55.4822 83.1027 56.0112 83.8255 56.3457C84.0157 56.4549 84.2265 56.5233 84.4445 56.5468C84.6626 56.5703 84.8831 56.5482 85.0922 56.4821C85.2593 56.3992 85.4055 56.2794 85.5196 56.1318C85.6337 55.9843 85.7129 55.8127 85.7511 55.6301C85.8354 55.2682 85.8412 54.8925 85.7681 54.5281Z" fill="#263238"/>
<path d="M81.6614 56.0389C81.6103 56.0389 81.6217 55.363 81.4001 54.3349C81.1446 52.9688 80.4578 51.7205 79.4405 50.7735C78.8814 50.2651 78.2069 49.9005 77.4753 49.7114C76.876 49.5643 76.2521 49.5488 75.6463 49.6659C75.088 49.7964 74.5546 50.0171 74.0673 50.3191C74.0673 50.3191 74.1638 50.1771 74.4137 49.9954C74.7724 49.7445 75.1752 49.5634 75.6009 49.4615C76.2379 49.3123 76.9007 49.3123 77.5377 49.4615C78.3226 49.6574 79.0455 50.0481 79.6393 50.5975C80.7045 51.5835 81.4 52.9044 81.6103 54.3406C81.6779 54.7651 81.7121 55.1943 81.7125 55.6243C81.7196 55.7644 81.7023 55.9047 81.6614 56.0389Z" fill="#455A64"/>
<path d="M133.974 122.262L112.135 113.6C112.135 113.6 100.951 98.9285 101.184 98.6445L93.3281 107.244L104.745 122.688L131.208 128.891L135.752 127.63C134.752 122.807 133.974 122.262 133.974 122.262Z" fill="#FFBE9D"/>
<path d="M86.3758 80.406L83.3995 79.27L70.5513 80.9002V83.1722L70.1821 83.2176C67.4126 83.8065 64.7561 84.8383 62.3153 86.2735C60.029 87.6692 58.2123 89.7168 57.0989 92.1531C55.9855 94.5894 55.6263 97.3031 56.0673 99.9452C56.5899 103.194 57.6009 107.142 59.5548 109.425C63.2866 113.793 66.6946 108.397 66.6946 108.397C66.6946 108.397 69.0348 113.736 68.8984 116.264C68.7848 118.383 67.8533 122.79 67.5523 124.165C67.5399 124.22 67.5389 124.277 67.5492 124.332C67.5595 124.387 67.581 124.44 67.6124 124.487C67.6438 124.533 67.6843 124.573 67.7316 124.604C67.7789 124.635 67.8319 124.655 67.8874 124.665L94.9924 129.68L95.123 123.051L94.2596 95.7875L93.0384 85.1999C93.0384 85.1999 93.0782 80.1447 86.3758 80.406Z" fill="#D9282F"/>
<path d="M92.6238 83.4395L102.961 98.3722L94.6402 108.505L92.6238 83.4395Z" fill="#D9282F"/>
<path d="M94.8561 114.861C94.819 114.54 94.8057 114.218 94.8163 113.895C94.8163 113.225 94.8163 112.345 94.7822 111.271C94.7319 108.39 94.5253 105.513 94.1631 102.655C93.7371 99.3034 93.0839 96.3101 92.5898 94.1346L91.9877 91.5786C91.9004 91.2695 91.8358 90.9543 91.7946 90.6357C91.9237 90.9309 92.0264 91.2369 92.1013 91.5502C92.2774 92.1182 92.5159 93.01 92.7886 94.0892C93.5219 96.8917 94.0797 99.7372 94.4585 102.609C94.8236 105.48 95.002 108.372 94.9924 111.265C94.9924 112.401 94.964 113.276 94.9299 113.895C94.9328 114.219 94.9081 114.542 94.8561 114.861Z" fill="#263238"/>
<path d="M69.4097 92.1579C69.4097 92.2033 68.6258 92.1977 67.3705 92.2601C65.7327 92.349 64.1037 92.5597 62.4971 92.8906C60.891 93.2277 59.3115 93.6814 57.7713 94.2481C56.5899 94.6855 55.8799 95.0093 55.8572 94.9638C56.0028 94.8497 56.1633 94.7561 56.3343 94.6855C56.6467 94.5151 57.1125 94.2993 57.6975 94.055C60.7624 92.7893 64.038 92.1111 67.3535 92.0557C67.9897 92.0557 68.4895 92.0557 68.8587 92.0897C69.0448 92.0838 69.2307 92.1067 69.4097 92.1579Z" fill="#FAFAFA"/>
<path d="M93.3508 98.991C92.9354 99.1419 92.5019 99.2374 92.0615 99.275C89.9611 99.5816 87.8332 99.654 85.7169 99.4908C85.2749 99.4832 84.8358 99.4183 84.4105 99.2977C84.8489 99.2588 85.2899 99.2588 85.7283 99.2977C86.5348 99.2977 87.6538 99.2977 88.8864 99.2977C90.1189 99.2977 91.2322 99.1728 92.0388 99.0989C92.4719 99.0233 92.9111 98.9871 93.3508 98.991Z" fill="#FAFAFA"/>
<path d="M98.0937 92.2377C97.4676 92.9611 96.7174 93.567 95.8785 94.0269C95.0865 94.5623 94.2027 94.9474 93.2714 95.1629C93.2373 95.0834 94.4074 94.5949 95.7251 93.7543C97.0429 92.9137 98.0369 92.1696 98.0937 92.2377Z" fill="#FAFAFA"/>
<path d="M93.9189 85.3137C92.1268 86.9257 89.8435 87.8863 87.438 88.0401C87.438 87.9492 89 87.7106 90.7949 86.9438C92.5898 86.177 93.8621 85.2398 93.9189 85.3137Z" fill="#FAFAFA"/>
<path d="M94.4811 110.556C94.314 110.668 94.135 110.761 93.9472 110.834C93.5894 111.004 93.0725 111.214 92.4136 111.459C90.7018 112.074 88.9347 112.523 87.1369 112.799C85.3391 113.077 83.5185 113.177 81.7011 113.1C81.0025 113.072 80.4402 113.021 80.0539 112.97C79.8517 112.956 79.6516 112.92 79.4575 112.862C79.4575 112.81 80.3209 112.862 81.7295 112.896C85.3409 112.929 88.9338 112.377 92.3682 111.26C93.6632 110.834 94.4641 110.51 94.4811 110.556Z" fill="#FAFAFA"/>
<path d="M94.6913 118.252C94.6913 118.252 94.6118 118.309 94.447 118.394L93.72 118.712C93.0952 119.007 92.1694 119.394 91.0106 119.848C89.8519 120.302 88.449 120.74 86.8699 121.171C83.4371 122.096 79.9135 122.643 76.3619 122.802C74.7261 122.864 73.255 122.858 72.0167 122.802C70.7785 122.745 69.7845 122.654 69.0972 122.557L68.3077 122.449C68.2147 122.443 68.123 122.424 68.035 122.393C68.1272 122.378 68.2212 122.378 68.3134 122.393L69.1086 122.444C69.7958 122.501 70.8126 122.557 72.0224 122.591C73.2322 122.626 74.7261 122.591 76.3506 122.535C77.975 122.478 79.7586 122.273 81.6159 121.967C83.4733 121.66 85.2227 121.291 86.8018 120.893C88.3808 120.496 89.7781 120.047 90.9368 119.632C92.0955 119.218 93.0384 118.871 93.6746 118.61L94.413 118.32C94.5031 118.288 94.5964 118.265 94.6913 118.252Z" fill="#FAFAFA"/>
<path d="M44.872 239.003L41.7992 252.88L36.193 263.155C36.0977 263.33 36.0393 263.523 36.0216 263.722C36.0039 263.921 36.0272 264.122 36.09 264.311C36.1528 264.501 36.2539 264.675 36.3869 264.824C36.5199 264.973 36.682 265.093 36.8632 265.177C37.0737 265.273 37.3042 265.318 37.5354 265.307C37.7667 265.296 37.9919 265.23 38.1924 265.114C40.7938 263.615 50.3419 258.031 50.5066 257.003C50.7054 255.816 54.7212 242.582 54.7212 242.582L44.872 239.003Z" fill="#D9282F"/>
<g opacity="0.6">
<path d="M36.8633 265.176L50.7395 256.088L50.5918 256.656C50.4704 257.163 50.1724 257.61 49.7512 257.917C48.6152 258.73 45.4514 260.911 38.2378 265.125C38.0307 265.247 37.7968 265.315 37.557 265.324C37.3171 265.333 37.0788 265.282 36.8633 265.176Z" fill="white"/>
</g>
<g opacity="0.6">
<path d="M48.9957 250.926C48.7953 251.009 48.6329 251.164 48.5395 251.36C48.4462 251.556 48.4287 251.78 48.4902 251.988C48.566 252.191 48.7166 252.356 48.911 252.452C49.1054 252.547 49.3288 252.564 49.5353 252.499C49.7499 252.41 49.9236 252.245 50.0224 252.034C50.1211 251.824 50.1378 251.585 50.0693 251.363C49.9687 251.162 49.7949 251.007 49.5837 250.93C49.3725 250.853 49.1397 250.859 48.9333 250.948" fill="white"/>
</g>
<path d="M41.4981 259.917C41.2689 259.406 40.9473 258.942 40.5495 258.548C40.0913 258.229 39.5767 257.999 39.033 257.872C39.033 257.832 39.2318 257.77 39.5669 257.804C40.003 257.86 40.4134 258.041 40.7483 258.326C41.0858 258.6 41.3348 258.968 41.464 259.383C41.5606 259.707 41.5322 259.917 41.4981 259.917Z" fill="#263238"/>
<path d="M40.0611 261.524C39.9816 261.57 39.6465 261.013 38.9819 260.633C38.558 260.436 38.1216 260.267 37.6755 260.127C37.9207 260.047 38.1816 260.026 38.4364 260.067C38.6912 260.107 38.9328 260.208 39.141 260.36C39.8964 260.797 40.1407 261.507 40.0611 261.524Z" fill="#263238"/>
<path d="M43.9065 257.997C43.4235 257.461 42.8993 256.963 42.3388 256.509C41.7212 256.132 41.0756 255.804 40.4076 255.526C41.1758 255.51 41.9246 255.768 42.5206 256.253C43.1776 256.648 43.6698 257.268 43.9065 257.997Z" fill="#263238"/>
<path d="M45.1959 253.856C45.1391 253.93 44.4518 253.425 43.4919 253.146C42.5319 252.868 41.6629 252.913 41.6572 252.817C42.2894 252.653 42.9541 252.663 43.581 252.846C44.2079 253.029 44.7737 253.378 45.2186 253.856H45.1959Z" fill="#263238"/>
<path d="M46.2011 249.807C45.647 249.464 45.0489 249.199 44.4233 249.017C43.7787 248.93 43.1253 248.93 42.4807 249.017C42.4807 248.983 42.6568 248.847 43.0203 248.739C43.4981 248.609 43.9997 248.593 44.4849 248.692C44.9702 248.79 45.4256 249.001 45.8149 249.307C46.1046 249.58 46.2238 249.784 46.2011 249.807Z" fill="#263238"/>
<path d="M44.6335 248.25C44.6339 248.07 44.6726 247.892 44.7471 247.728C44.908 247.259 45.1632 246.828 45.4968 246.461C45.7151 246.17 46.0222 245.959 46.3716 245.859C46.4905 245.839 46.6125 245.856 46.7219 245.907C46.8313 245.957 46.9229 246.04 46.985 246.143C47.0894 246.355 47.1117 246.597 47.0475 246.825C46.9018 247.28 46.6024 247.671 46.2003 247.93C45.7983 248.189 45.3187 248.3 44.8436 248.245C44.3752 248.178 43.937 247.974 43.5842 247.659C43.2315 247.343 42.9799 246.93 42.8613 246.472C42.8341 246.356 42.8316 246.235 42.8541 246.118C42.8766 246 42.9236 245.889 42.992 245.791C43.0704 245.699 43.1761 245.635 43.2935 245.607C43.4109 245.58 43.5341 245.59 43.6452 245.637C43.9662 245.798 44.2402 246.038 44.4404 246.336C44.7414 246.73 44.9702 247.174 45.1163 247.648C45.1855 247.817 45.2184 247.999 45.2128 248.182C44.9839 247.57 44.6641 246.995 44.2643 246.478C44.0781 246.235 43.8366 246.041 43.56 245.91C43.4991 245.884 43.4314 245.878 43.3669 245.893C43.3023 245.908 43.2445 245.944 43.2021 245.995C43.1624 246.062 43.1369 246.137 43.1271 246.214C43.1174 246.291 43.1236 246.369 43.1453 246.444C43.2638 246.829 43.4887 247.174 43.7942 247.437C44.0997 247.7 44.4733 247.872 44.872 247.932C45.2738 247.979 45.6795 247.888 46.023 247.674C46.3665 247.461 46.6275 247.137 46.7635 246.756C46.8185 246.602 46.8185 246.434 46.7635 246.279C46.7313 246.221 46.6816 246.174 46.6215 246.146C46.5614 246.117 46.4938 246.108 46.4284 246.12C46.1323 246.202 45.8686 246.372 45.6729 246.609C45.2372 247.094 44.8859 247.649 44.6335 248.25Z" fill="#263238"/>
<g opacity="0.3">
<path d="M44.4972 240.509L43.8326 243.689L53.8806 245.359L54.7212 242.582L44.855 239.003L44.4972 240.509Z" fill="black"/>
</g>
<path d="M89.744 244.138L88.9148 255.225C88.9148 255.225 99.9112 259.769 99.9567 261.859L78.3727 261.024L78.9407 243.689L89.744 244.138Z" fill="#D9282F"/>
<g opacity="0.6">
<path d="M82.2976 254.032C82.0881 254.088 81.9065 254.219 81.7872 254.401C81.6678 254.582 81.6191 254.8 81.6501 255.015C81.6979 255.226 81.8243 255.411 82.0037 255.532C82.1831 255.654 82.4019 255.702 82.6157 255.668C82.8385 255.609 83.0315 255.47 83.1573 255.276C83.2832 255.083 83.3331 254.851 83.2973 254.623C83.2255 254.407 83.0731 254.228 82.872 254.122C82.6708 254.016 82.4365 253.992 82.2181 254.055" fill="white"/>
</g>
<g opacity="0.6">
<path d="M78.384 261.024L78.509 259.275L99.1558 260.712C99.1558 260.712 100.104 261.166 99.968 261.848L78.384 261.024Z" fill="white"/>
</g>
<path d="M89.2783 255.129C89.2783 255.237 88.7443 255.265 88.2161 255.583C87.6879 255.901 87.3925 256.333 87.296 256.287C87.1994 256.242 87.3811 255.64 88.0287 255.265C88.6762 254.89 89.3067 255.032 89.2783 255.129Z" fill="#263238"/>
<path d="M91.5049 256.168C91.5049 256.276 91.0618 256.435 90.6869 256.867C90.3121 257.299 90.1928 257.764 90.0849 257.759C89.9769 257.753 89.9372 257.151 90.4143 256.623C90.8914 256.094 91.5049 256.055 91.5049 256.168Z" fill="#263238"/>
<path d="M92.6862 258.912C92.5897 258.912 92.4647 258.395 92.7544 257.832C93.0441 257.27 93.5496 257.054 93.5894 257.145C93.6291 257.236 93.3167 257.531 93.0838 257.997C92.851 258.463 92.7885 258.906 92.6862 258.912Z" fill="#263238"/>
<path d="M89.176 252.584C89.1306 252.675 88.6535 252.51 88.04 252.527C87.4266 252.544 86.9722 252.715 86.904 252.624C86.8359 252.533 87.313 252.175 88.04 252.164C88.7671 252.152 89.2442 252.505 89.176 252.584Z" fill="#263238"/>
<g opacity="0.3">
<path d="M89.5907 246.336L89.4431 248.313L78.8499 247.801L78.9237 245.518L89.5907 246.336Z" fill="black"/>
</g>
<path d="M89.3181 250.341C88.9612 250.427 88.5873 250.411 88.2389 250.295C87.8451 250.213 87.4634 250.082 87.1029 249.903C86.8926 249.8 86.6896 249.682 86.4951 249.551C86.3765 249.478 86.2694 249.388 86.177 249.284C86.1144 249.203 86.0804 249.103 86.0804 249C86.0804 248.897 86.1144 248.797 86.177 248.716C86.2323 248.644 86.3039 248.587 86.3859 248.548C86.4679 248.51 86.5579 248.491 86.6485 248.495C86.7853 248.5 86.9208 248.523 87.0518 248.563C87.2791 248.629 87.4997 248.717 87.7106 248.824C88.0693 248.999 88.3973 249.231 88.6819 249.511C89.1647 249.994 89.3181 250.397 89.284 250.414C89.2499 250.431 89.0057 250.108 88.5115 249.704C88.2214 249.478 87.9048 249.287 87.5686 249.136C87.3682 249.053 87.1635 248.981 86.9552 248.921C86.728 248.852 86.5349 248.847 86.4724 248.921C86.4099 248.994 86.4724 248.977 86.4724 249.045C86.5405 249.121 86.6189 249.186 86.7053 249.239C86.8875 249.365 87.0772 249.481 87.2733 249.585C87.6008 249.766 87.9451 249.914 88.3014 250.028C88.6473 250.108 88.987 250.212 89.3181 250.341Z" fill="#263238"/>
<path d="M89.1761 250.488C88.9873 250.17 88.902 249.8 88.9318 249.431C88.9341 249.032 88.9993 248.635 89.125 248.256C89.2065 248.033 89.3072 247.819 89.426 247.614C89.4898 247.473 89.5886 247.352 89.7129 247.26C89.8372 247.169 89.9829 247.11 90.136 247.091C90.233 247.098 90.3262 247.131 90.4046 247.189C90.4831 247.246 90.5436 247.325 90.579 247.415C90.6284 247.543 90.659 247.676 90.6699 247.813C90.7073 248.054 90.7073 248.299 90.6699 248.54C90.594 248.941 90.4204 249.318 90.1644 249.636C89.7214 250.204 89.2783 250.289 89.267 250.255C89.2556 250.221 89.6078 250.011 89.9542 249.483C90.1531 249.181 90.283 248.84 90.3348 248.483C90.3636 248.276 90.3636 248.065 90.3348 247.858C90.3064 247.631 90.2269 247.438 90.1417 247.461C90.0565 247.483 89.8463 247.62 89.7498 247.801C89.6389 247.983 89.542 248.173 89.4601 248.369C89.3286 248.712 89.2445 249.071 89.2102 249.437C89.1363 250.073 89.2329 250.488 89.1761 250.488Z" fill="#263238"/>
<path d="M67.433 124.562C67.433 124.562 64.025 124.716 61.753 136.371C59.481 148.027 42.1627 242.468 42.1627 242.468L54.7212 242.581L78.3841 152.792L76.8107 245.376L89.568 246.353C89.568 246.353 99.1388 143.948 99.224 137.99C99.3376 130.561 95.0719 123.046 95.0719 123.046L67.433 124.562Z" fill="#263238"/>
<path d="M84.6945 123.568C84.774 123.568 83.4676 130.242 81.7806 138.439C80.0937 146.635 78.6623 153.269 78.5828 153.252C78.5033 153.235 79.804 146.578 81.491 138.382C83.1779 130.186 84.632 123.551 84.6945 123.568Z" fill="#455A64"/>
<path d="M86.6484 125.233C86.6484 125.199 86.9892 125.096 87.3811 125.443C87.4924 125.544 87.5805 125.668 87.6394 125.806C87.6982 125.944 87.7264 126.093 87.7219 126.244C87.7077 126.434 87.6398 126.616 87.5262 126.768C87.4126 126.921 87.2578 127.039 87.0801 127.107C86.9066 127.186 86.7146 127.214 86.5258 127.189C86.337 127.164 86.1591 127.086 86.0122 126.965C85.9024 126.862 85.8157 126.737 85.7579 126.598C85.7002 126.459 85.6726 126.309 85.6771 126.158C85.6771 125.636 86.0293 125.454 86.035 125.488C85.9392 125.697 85.8888 125.923 85.8873 126.153C85.8949 126.268 85.9254 126.381 85.9771 126.484C86.0288 126.588 86.1006 126.68 86.1883 126.755C86.3004 126.832 86.4301 126.88 86.5655 126.894C86.7008 126.908 86.8376 126.888 86.9631 126.835C87.0887 126.783 87.199 126.699 87.2839 126.593C87.3689 126.487 87.4257 126.361 87.4493 126.227C87.4576 126.112 87.4428 125.996 87.4058 125.887C87.3687 125.777 87.3101 125.677 87.2334 125.59C86.9551 125.267 86.6427 125.278 86.6484 125.233Z" fill="#455A64"/>
<path d="M86.1088 129.845C86.1088 129.811 86.461 129.845 86.6768 130.317C86.7317 130.451 86.7566 130.596 86.7497 130.741C86.7429 130.887 86.7044 131.028 86.6371 131.157C86.5394 131.31 86.4018 131.434 86.2392 131.515C86.0766 131.596 85.895 131.631 85.7139 131.616C85.5329 131.601 85.3593 131.538 85.2117 131.432C85.0641 131.326 84.9481 131.182 84.8763 131.015C84.8309 130.878 84.816 130.733 84.8327 130.59C84.8494 130.447 84.8972 130.309 84.9728 130.186C85.2398 129.76 85.6033 129.771 85.5919 129.805C85.5806 129.839 85.3193 129.919 85.1546 130.283C85.0713 130.486 85.0713 130.715 85.1546 130.919C85.2139 131.031 85.3007 131.127 85.407 131.197C85.5133 131.268 85.6357 131.31 85.7626 131.32C85.8896 131.33 86.017 131.308 86.1332 131.256C86.2493 131.204 86.3504 131.123 86.4269 131.021C86.5339 130.827 86.5604 130.598 86.5007 130.385C86.336 129.999 86.0804 129.885 86.1088 129.845Z" fill="#455A64"/>
<path d="M74.0729 125.346C74.0496 125.542 73.9999 125.733 73.9252 125.914C73.7478 126.435 73.5254 126.938 73.2607 127.42C72.394 129.026 71.1424 130.393 69.6177 131.397C68.0931 132.401 66.3432 133.012 64.5248 133.173C63.9787 133.221 63.4294 133.221 62.8833 133.173C62.6909 133.167 62.5 133.137 62.3153 133.083C62.3153 133.026 63.173 133.122 64.5305 132.952C66.2998 132.737 67.9951 132.115 69.4833 131.135C70.9715 130.154 72.212 128.841 73.1073 127.3C73.7719 126.153 74.0218 125.329 74.0729 125.346Z" fill="#455A64"/>
<path d="M98.5083 133.634C98.5083 133.634 98.3607 133.566 98.1278 133.406C97.8024 133.172 97.4983 132.91 97.219 132.623C96.2849 131.677 95.556 130.549 95.0781 129.309C94.6001 128.068 94.3834 126.743 94.4415 125.415C94.4545 125.015 94.5058 124.617 94.5948 124.228C94.6573 123.949 94.6971 123.802 94.7198 123.807C94.7425 123.813 94.6516 124.426 94.6516 125.42C94.6526 128.03 95.6221 130.546 97.3723 132.481C98.0369 133.213 98.5367 133.588 98.5083 133.634Z" fill="#455A64"/>
<path d="M142.568 133.963C142.756 133.509 142.704 133.691 139.694 131.691C139.694 131.691 144.011 134.531 143.562 133.179C143.174 132.667 142.699 132.227 142.159 131.879C143.295 132.549 143.954 132.623 144.153 132.35C144.494 131.879 142.023 130.078 140.847 129.266C141.922 130.035 143.049 130.728 144.221 131.339C144.92 131.555 144.584 130.737 144.113 130.141C143.642 129.544 139.984 126.023 139.001 124.972C138.908 124.892 138.832 124.792 138.781 124.681C138.729 124.569 138.703 124.447 138.703 124.324C138.703 124.201 138.729 124.08 138.781 123.968C138.832 123.856 138.908 123.757 139.001 123.677C140.762 122.541 141.534 120.729 141.512 120.132C141.492 119.998 141.43 119.873 141.336 119.776C141.241 119.679 141.118 119.615 140.984 119.592C140.85 119.569 140.713 119.59 140.591 119.65C140.47 119.71 140.37 119.808 140.307 119.928C139.863 120.48 139.345 120.97 138.768 121.382C138.321 121.731 137.818 122.002 137.28 122.183C136.655 122.387 133.582 122.217 132.923 121.882L130.828 128.987C130.828 128.987 138.433 132.543 139.876 133.236C141.648 134.077 142.437 134.31 142.568 133.963Z" fill="#FFBE9D"/>
<path d="M138.325 130.64C138.263 130.725 139.251 131.447 140.529 132.259C141.807 133.071 142.88 133.656 142.932 133.571C142.983 133.486 141.994 132.759 140.722 131.952C139.45 131.146 138.382 130.532 138.325 130.64Z" fill="#EB996E"/>
<path d="M139.041 129.248C138.984 129.334 139.995 130.163 141.313 131.106C142.63 132.049 143.721 132.747 143.778 132.668C143.835 132.588 142.829 131.753 141.506 130.81C140.182 129.867 139.103 129.169 139.041 129.248Z" fill="#EB996E"/>
<path d="M139.796 127.84C139.739 127.919 140.682 128.726 141.904 129.635C143.125 130.544 144.176 131.214 144.221 131.134C144.266 131.055 143.341 130.248 142.119 129.339C140.898 128.431 139.859 127.76 139.796 127.84Z" fill="#EB996E"/>
<path d="M62.4403 102.104L68.018 102.411C68.4131 103.968 68.9414 105.488 69.5971 106.955C74.0899 99.1617 77.5491 88.7162 78.4351 84.5186C78.3102 84.1059 78.1568 83.6401 77.9751 83.1214C77.839 82.3371 77.8622 81.5335 78.0432 80.7585C78.1966 79.827 78.4579 78.566 78.5317 77.9866C78.7759 76.2145 79.0599 75.9305 79.6677 76.135C80.5083 76.4076 79.3212 81.1163 80.0085 81.2186C80.3834 81.2697 80.8321 79.6566 80.9684 78.3331C81.1047 77.0097 81.6955 72.9428 82.1328 72.6531C82.7747 72.2555 83.3313 72.886 83.1723 74.2038C83.0132 75.5215 82.8031 79.5146 83.5017 79.5657C84.2003 79.6168 84.7683 72.869 84.7683 72.869C84.7683 72.869 84.6604 71.4035 85.467 71.4376C86.9267 71.5001 85.7908 78.6171 85.6658 79.293C85.5749 79.7588 86.336 79.861 86.4042 79.3385C86.4723 78.8159 86.8245 72.585 88.307 72.6361C89.443 72.6758 87.4266 78.4978 88.0684 79.8497C88.7103 81.2015 89.1533 75.2659 90.2439 75.3454C90.6471 75.3795 90.9482 75.459 90.2041 78.8159C89.4779 81.4852 88.6076 84.1133 87.597 86.6884C85.893 96.0036 78.2875 125.801 66.4049 120.348C59.7593 117.298 56.6523 102.172 56.6523 102.172L62.4403 102.104Z" fill="#FFBE9D"/>
<path d="M87.6084 86.7396C87.6182 86.6693 87.6373 86.6005 87.6652 86.5352C87.7163 86.3875 87.7788 86.1944 87.864 85.9672C88.0514 85.4276 88.307 84.6778 88.6421 83.6952C88.9773 82.7125 89.3805 81.5197 89.7781 80.1111C89.9826 79.4124 90.153 78.6513 90.3064 77.8391C90.3859 77.4301 90.4598 77.0098 90.5109 76.5781C90.525 76.3644 90.525 76.15 90.5109 75.9363C90.5109 75.7148 90.4597 75.533 90.2837 75.5273C90.1076 75.5216 89.9826 75.6296 89.8577 75.817C89.7445 76.0176 89.6513 76.2287 89.5794 76.4475C89.4203 76.8962 89.2953 77.3733 89.1704 77.8561C89.0454 78.3389 88.9318 78.8444 88.7841 79.3556C88.7198 79.6357 88.6042 79.9014 88.4433 80.1395C88.4029 80.1861 88.3495 80.2197 88.29 80.236C88.2525 80.2443 88.2136 80.244 88.1762 80.2351C88.1389 80.2263 88.104 80.2091 88.0741 80.1849C88.0089 80.1251 87.955 80.0539 87.9151 79.9748C87.8551 79.8353 87.815 79.688 87.7958 79.5374C87.7699 78.3918 87.8844 77.2472 88.1366 76.1294C88.2332 75.5614 88.3354 74.9934 88.4093 74.4254C88.4433 74.1357 88.4774 73.8574 88.4831 73.5507C88.4888 73.244 88.4433 72.9202 88.3241 72.8691C88.2048 72.818 87.9151 72.977 87.7561 73.2156C87.5991 73.4675 87.475 73.7386 87.3869 74.0221C87.1932 74.6155 87.0469 75.2232 86.9495 75.8397C86.8416 76.4645 86.7564 77.1007 86.6825 77.7482C86.6541 78.072 86.6201 78.3957 86.5917 78.7252L86.5462 79.2193C86.5523 79.3249 86.5351 79.4304 86.4958 79.5286C86.4566 79.6268 86.3962 79.7151 86.319 79.7873C86.2218 79.8584 86.1044 79.8967 85.9839 79.8967C85.8634 79.8967 85.7461 79.8584 85.6488 79.7873C85.5937 79.7509 85.547 79.7032 85.5117 79.6474C85.4765 79.5916 85.4535 79.5289 85.4443 79.4636C85.4357 79.4033 85.4357 79.3421 85.4443 79.2818V79.1625L85.5977 78.1685C85.6942 77.4983 85.7737 76.828 85.8362 76.1464C85.8987 75.4648 85.9498 74.7776 85.9612 74.0903C85.9945 73.4098 85.9255 72.7282 85.7567 72.0682C85.7175 71.9007 85.616 71.7545 85.4727 71.6592C85.4042 71.6372 85.3305 71.6375 85.2621 71.6599C85.1938 71.6824 85.1343 71.7259 85.0921 71.7842C84.9082 72.1204 84.8328 72.5054 84.8763 72.8861C84.7513 74.2209 84.6093 75.533 84.4162 76.8224C84.3197 77.4642 84.2117 78.106 84.0527 78.7365C84.0073 78.8899 83.9618 79.0489 83.905 79.208C83.851 79.4007 83.7377 79.5716 83.5813 79.6964C83.5121 79.7304 83.4334 79.7399 83.3581 79.7234C83.2828 79.7069 83.2153 79.6654 83.1666 79.6056C83.0973 79.5327 83.0449 79.4454 83.0133 79.35C82.952 79.1924 82.9082 79.0286 82.8826 78.8615C82.7495 77.6255 82.7381 76.3793 82.8485 75.1411C82.9325 74.5639 82.9648 73.9803 82.9451 73.3973C82.9267 73.1485 82.8127 72.9164 82.627 72.7498C82.5834 72.7227 82.5348 72.7047 82.484 72.6969C82.4332 72.6891 82.3814 72.6916 82.3317 72.7044C82.2785 72.7223 82.2272 72.7451 82.1783 72.7725C82.1272 72.818 82.1329 72.7725 82.0988 72.8691C81.8934 73.3799 81.7429 73.9111 81.6501 74.4538C81.5365 75.0218 81.4399 75.5387 81.3547 76.0726C81.2695 76.6065 81.19 77.1291 81.1218 77.6516C81.0537 78.1742 81.0196 78.6854 80.9174 79.1966C80.8291 79.696 80.696 80.1865 80.5197 80.662C80.4729 80.7831 80.4179 80.9007 80.355 81.0142C80.2755 81.1221 80.2301 81.2584 80.0142 81.3266C79.959 81.3367 79.902 81.3303 79.8504 81.308C79.7989 81.2858 79.7551 81.2488 79.7245 81.2016C79.6848 81.1361 79.6542 81.0654 79.6337 80.9915C79.6081 80.868 79.5929 80.7426 79.5882 80.6166C79.5882 79.6453 79.7189 78.7592 79.77 77.9016C79.807 77.4915 79.807 77.079 79.77 76.669C79.77 76.4872 79.6848 76.2714 79.5825 76.2316C79.5109 76.1965 79.4323 76.1783 79.3525 76.1783C79.2728 76.1783 79.1941 76.1965 79.1225 76.2316C78.8841 76.4877 78.7364 76.815 78.7021 77.1632C78.6169 77.5096 78.5829 77.8618 78.5204 78.1969C78.2818 79.5374 78.0319 80.6961 77.9126 81.639C77.8566 82.0537 77.8566 82.4739 77.9126 82.8886C77.9921 83.2294 78.1114 83.5361 78.1739 83.7747C78.2364 84.0132 78.2989 84.1836 78.3386 84.3427C78.3598 84.4036 78.375 84.4663 78.3841 84.5301C78.35 84.4751 78.3233 84.4159 78.3045 84.354L78.1114 83.786C78.0319 83.5418 77.9126 83.2692 77.8161 82.8943C77.7553 82.4685 77.7553 82.0363 77.8161 81.6106C77.924 80.6507 78.1512 79.5033 78.3841 78.1572C78.4465 77.822 78.4806 77.4699 78.5545 77.1064C78.5951 76.9144 78.6463 76.7247 78.7078 76.5384C78.7646 76.3318 78.8885 76.1499 79.06 76.0215C79.1632 75.9668 79.2783 75.9382 79.3951 75.9382C79.5119 75.9382 79.627 75.9668 79.7302 76.0215C79.8413 76.0915 79.9325 76.1888 79.9952 76.3042C80.0578 76.4196 80.0898 76.5491 80.0881 76.6804C80.1278 77.1073 80.1278 77.5371 80.0881 77.964C80.0483 78.8274 79.912 79.7305 79.9347 80.6507C79.9389 80.7595 79.9522 80.8678 79.9745 80.9744C79.9745 81.0824 80.054 81.1278 80.0426 81.1051C80.0313 81.0824 80.1505 81.0142 80.196 80.9233C80.252 80.8225 80.3013 80.7182 80.3437 80.6109C80.5119 80.1505 80.6355 79.675 80.7129 79.1909C80.8094 78.6968 80.8435 78.1856 80.9117 77.6573C80.9798 77.1291 81.048 76.6065 81.1332 76.0669C81.2184 75.5273 81.3149 74.9877 81.4229 74.4368C81.5152 73.8614 81.6754 73.2989 81.9 72.7612C81.9454 72.671 82.014 72.5945 82.0988 72.5396C82.1743 72.4982 82.2543 72.4658 82.3374 72.4431C82.4326 72.4159 82.5326 72.4094 82.6306 72.4241C82.7286 72.4388 82.8223 72.4743 82.9054 72.5283C83.0372 72.6329 83.146 72.7636 83.2252 72.9121C83.3043 73.0606 83.3521 73.2239 83.3654 73.3916C83.4081 73.7007 83.4081 74.0141 83.3654 74.3232C83.337 74.6128 83.3086 74.8912 83.2916 75.2092C83.1809 76.4191 83.1923 77.6369 83.3257 78.8444C83.35 78.9879 83.388 79.1286 83.4393 79.2648C83.4563 79.3197 83.4854 79.3702 83.5245 79.4124C83.5245 79.4124 83.5245 79.4124 83.5529 79.4124C83.5529 79.5431 83.5529 79.4124 83.5529 79.4636C83.5529 79.5147 83.5529 79.4636 83.5529 79.4181C83.6237 79.3232 83.6793 79.2178 83.7176 79.1057C83.7706 78.9656 83.816 78.8179 83.8539 78.6627C84.0073 78.0606 84.1095 77.4244 84.2061 76.7883C84.3992 75.5103 84.5412 74.1982 84.6605 72.8691V72.8975C84.61 72.4293 84.7115 71.9573 84.9501 71.5513C85.0412 71.4353 85.1662 71.3505 85.3077 71.3088C85.4492 71.2671 85.6002 71.2704 85.7397 71.3184C85.8588 71.3845 85.9634 71.4739 86.0473 71.5813C86.1313 71.6886 86.1927 71.8117 86.2281 71.9432C86.4101 72.6417 86.4847 73.3637 86.4497 74.0846C86.4497 74.7889 86.3872 75.4819 86.3247 76.1692C86.2622 76.8564 86.177 77.5324 86.0805 78.2026C86.0293 78.5434 85.9782 78.8728 85.9271 79.208C85.8817 79.4181 85.893 79.4238 85.9271 79.4863C85.9665 79.5129 86.013 79.5271 86.0606 79.5271C86.1082 79.5271 86.1546 79.5129 86.1941 79.4863C86.2622 79.4352 86.2736 79.3386 86.2906 79.1512L86.3304 78.657L86.4326 77.6744C86.5008 77.0268 86.5917 76.3793 86.6996 75.7488C86.8047 75.1156 86.9566 74.491 87.154 73.8801C87.2571 73.5714 87.3963 73.2759 87.5686 72.9997C87.6624 72.8509 87.7862 72.7232 87.9321 72.6248C88.0131 72.5663 88.1069 72.5279 88.2058 72.5131C88.3046 72.4983 88.4056 72.5074 88.5001 72.5396C88.5872 72.5933 88.6606 72.6663 88.7148 72.753C88.769 72.8397 88.8024 72.9378 88.8125 73.0395C88.836 73.1993 88.8455 73.3608 88.8409 73.5223C88.8409 73.8347 88.8012 74.1357 88.7671 74.4368C88.6876 75.0048 88.5797 75.6068 88.4774 76.1805C88.2335 77.2595 88.1153 78.3631 88.1253 79.4692C88.1413 79.588 88.1718 79.7044 88.2161 79.8157C88.2368 79.8561 88.2615 79.8941 88.29 79.9293C88.29 79.9293 88.29 79.9293 88.29 79.8896C88.4175 79.6843 88.5115 79.4599 88.5683 79.225C88.716 78.7308 88.8353 78.231 88.9659 77.7425C89.0831 77.2565 89.2253 76.7768 89.3919 76.3055C89.4706 76.072 89.5734 75.8474 89.6986 75.6352C89.7664 75.5196 89.855 75.4176 89.9599 75.3342C90.017 75.2847 90.0852 75.2496 90.1587 75.232C90.2321 75.2205 90.3068 75.2205 90.3802 75.232C90.4577 75.2397 90.5318 75.268 90.5947 75.3139C90.6576 75.3599 90.7071 75.4218 90.7381 75.4932C90.7855 75.6126 90.8105 75.7397 90.8119 75.8681C90.8163 76.0979 90.803 76.3277 90.7721 76.5554C90.721 76.9984 90.6358 77.4188 90.5563 77.8334C90.3916 78.6456 90.2098 79.4181 89.9883 80.1054C89.5623 81.514 89.1363 82.7068 88.7898 83.6781C88.4434 84.6494 88.148 85.3821 87.9492 85.9047C87.8526 86.1432 87.7731 86.3307 87.7163 86.4727C87.6909 86.5656 87.6547 86.6552 87.6084 86.7396Z" fill="#EB996E"/>
<path d="M56.6012 102.746C57.6804 106.557 59.7934 112.436 62.0597 118.65C62.1311 118.85 62.2604 119.024 62.4311 119.151C62.6018 119.278 62.8062 119.351 63.0185 119.361C63.2308 119.372 63.4414 119.319 63.6236 119.209C63.8058 119.1 63.9514 118.939 64.042 118.746L69.597 106.994C69.597 106.994 68.2566 97.3384 68.3702 97.6849C68.4838 98.0314 56.9079 98.9345 56.9079 98.9345L56.6012 102.746Z" fill="#D9282F"/>
<path d="M69.12 100.854C69.12 100.9 68.427 101.104 67.3308 101.524C65.8981 102.068 64.5179 102.741 63.2071 103.535C61.8981 104.333 60.6626 105.245 59.5151 106.262C58.6347 107.04 58.1292 107.574 58.0951 107.54C58.061 107.505 58.1917 107.381 58.4075 107.125C58.7118 106.77 59.0341 106.43 59.3731 106.108C60.4927 105.03 61.7269 104.078 63.0537 103.268C64.3809 102.469 65.7901 101.813 67.2569 101.314C67.7004 101.162 68.1516 101.033 68.6088 100.928C68.7742 100.876 68.9467 100.851 69.12 100.854Z" fill="#FAFAFA"/>
<path d="M71.3239 103.785C70.9629 103.421 70.6499 103.013 70.3924 102.57C69.729 101.535 69.1588 100.444 68.6884 99.3093C68.2176 98.1709 67.8507 96.9922 67.5921 95.7877C67.4597 95.295 67.3929 94.787 67.3933 94.2769C67.5627 94.7531 67.6975 95.241 67.7966 95.7366C68.1009 96.9128 68.4803 98.0682 68.9326 99.1957C69.4051 100.317 69.9477 101.408 70.5571 102.462C70.8407 102.886 71.0968 103.328 71.3239 103.785Z" fill="#263238"/>
<path d="M75.0272 51.7448C74.0635 53.3331 73.4661 55.1162 73.2785 56.9644C73.0908 58.8126 73.3176 60.6794 73.9423 62.4289C74.5103 63.9909 75.4191 65.5302 75.2544 67.1888C75.0896 68.8473 73.7946 70.4888 74.249 72.1247C74.5216 73.096 75.3509 73.8287 75.6747 74.7716C76.0439 75.9076 75.6747 77.106 75.4759 78.2704C75.0215 81.2468 75.9757 84.2401 76.2086 87.2392C76.4415 90.2382 75.6406 93.7541 72.9596 95.0605C72.1474 95.4581 71.0852 95.5717 70.4093 94.964C69.546 94.1972 69.7845 92.8112 70.0231 91.6752C72.3746 80.3152 65.1099 69.2279 66.7684 57.7316C67.0354 55.8912 68.0635 52.7672 69.3869 51.4836C70.7104 50.1999 74.3853 50.3476 75.6349 51.7108" fill="#263238"/>
<path d="M63.8375 84.7004C63.8375 84.7004 64.184 84.2914 64.6952 83.4849C65.4126 82.3457 65.9151 81.0848 66.1777 79.7644C66.3491 78.855 66.4082 77.9279 66.3538 77.004C66.2544 75.9297 66.2146 74.8507 66.2345 73.7721C66.2684 73.1813 66.3772 72.5973 66.5582 72.034C66.7658 71.4537 67.0283 70.8945 67.3421 70.3641C67.9782 69.2905 68.7791 68.2909 69.5175 67.223C70.2758 66.2138 70.8032 65.0504 71.0625 63.815C71.1884 62.6514 71.1212 61.4749 70.8637 60.3332C70.6488 59.272 70.5648 58.1885 70.6138 57.1069C70.6813 56.1622 70.8723 55.2303 71.1818 54.3351C71.6157 53.0361 72.2986 51.8341 73.1925 50.7965C73.4299 50.5144 73.6881 50.2505 73.965 50.0069C74.0527 49.9134 74.152 49.8313 74.2603 49.7627C74.2603 49.7627 73.8798 50.1319 73.2777 50.8987C71.8437 52.6787 71.0052 54.8643 70.8807 57.1467C70.8427 58.2106 70.9362 59.2751 71.159 60.3161C71.43 61.4886 71.5029 62.698 71.3749 63.8945C71.1056 65.1644 70.5629 66.3603 69.7845 67.3991C69.0404 68.484 68.2395 69.478 67.6147 70.5231C67.3074 71.0338 67.0524 71.5743 66.8536 72.1362C66.6739 72.6765 66.5651 73.2378 66.5298 73.8061C66.5047 74.8729 66.5351 75.9403 66.6207 77.004C66.6658 77.9465 66.5933 78.891 66.4049 79.8156C66.1203 81.1539 65.5803 82.4248 64.8145 83.5587C64.6072 83.8652 64.3794 84.1574 64.1329 84.4334C64.0445 84.5329 63.9455 84.6225 63.8375 84.7004Z" fill="#455A64"/>
<path d="M58.4529 85.5468C58.4986 85.4143 58.5576 85.2868 58.629 85.1662C58.771 84.8993 58.9527 84.5471 59.197 84.1041C59.6741 83.1782 60.3841 81.8321 61.0827 80.1281C61.9373 78.1379 62.4113 76.0051 62.48 73.8403C62.4803 73.2166 62.4328 72.5937 62.338 71.9773C62.2414 71.3411 62.0938 70.6993 61.9972 70.029C61.8791 69.3357 61.8945 68.6263 62.0426 67.9388C62.2347 67.2329 62.6297 66.599 63.1786 66.1155C64.2465 65.1442 65.5358 64.5081 66.2061 63.3664C66.7868 62.2343 67.1289 60.9951 67.2114 59.7255C67.3317 58.5616 67.5949 57.417 67.9953 56.3175C68.8956 53.9572 70.4998 51.9306 72.5904 50.5125C72.9237 50.2882 73.2709 50.0852 73.6298 49.9048C73.751 49.8322 73.8808 49.7749 74.0161 49.7344C74.0161 49.7344 73.5049 50.007 72.6586 50.6091C71.4657 51.4603 70.433 52.5161 69.6084 53.7274C69.0365 54.5578 68.5709 55.4566 68.2225 56.4027C67.8397 57.5047 67.5918 58.6491 67.4841 59.8107C67.3137 61.0205 67.1774 62.3724 66.4503 63.5709C65.7233 64.7693 64.3942 65.4509 63.3774 66.4109C62.8593 66.8605 62.4858 67.4534 62.3039 68.1149C62.1658 68.7653 62.1523 69.436 62.2642 70.0915C62.355 70.7447 62.497 71.3922 62.5936 72.0341C62.6919 72.6653 62.7375 73.3037 62.7299 73.9425C62.6527 76.147 62.1533 78.3162 61.2588 80.3325C60.6778 81.6952 60.0178 83.0227 59.2822 84.3085L58.6801 85.2003C58.6168 85.3235 58.5406 85.4396 58.4529 85.5468Z" fill="#455A64"/>
<path d="M246.381 246.046C246.408 245.963 246.442 245.884 246.484 245.808C246.563 245.637 246.671 245.41 246.802 245.12C247.197 244.233 247.514 243.313 247.75 242.371C248.375 239.929 248.597 236.197 247.671 231.767C247.168 229.351 246.51 226.969 245.7 224.638C244.871 222.111 243.899 219.43 243.11 216.527C242.218 213.5 241.787 210.356 241.832 207.201C241.951 203.901 242.928 200.612 244.001 197.329C245.075 194.046 246.183 190.848 246.512 187.61C246.878 184.506 246.254 181.365 244.728 178.636C243.308 176.017 241.519 173.774 240.184 171.456C238.935 169.303 238.014 166.975 237.452 164.549C236.646 161.038 236.586 157.396 237.276 153.86C237.528 152.566 237.908 151.3 238.412 150.083C238.397 150.168 238.374 150.251 238.344 150.332L238.117 151.054C237.924 151.69 237.668 152.644 237.424 153.894C236.789 157.414 236.884 161.027 237.702 164.51C238.272 166.906 239.197 169.203 240.446 171.326C241.781 173.598 243.575 175.87 245.03 178.5C246.592 181.283 247.234 184.49 246.864 187.661C246.529 190.944 245.416 194.176 244.342 197.454C243.269 200.731 242.303 203.986 242.184 207.229C242.133 210.353 242.554 213.467 243.433 216.465C244.212 219.35 245.166 222.031 245.989 224.57C246.792 226.914 247.437 229.309 247.921 231.738C248.824 236.203 248.568 239.974 247.921 242.422C247.667 243.366 247.327 244.285 246.904 245.166L246.552 245.842C246.503 245.916 246.446 245.985 246.381 246.046Z" fill="#263238"/>
<path d="M242.002 173.745C242.002 173.745 239.287 165.049 244.161 159.96C244.198 159.919 244.247 159.89 244.3 159.874C244.354 159.859 244.411 159.86 244.464 159.875C244.518 159.89 244.566 159.92 244.604 159.961C244.641 160.002 244.667 160.053 244.677 160.108C244.939 161.545 245.262 165.918 242.002 173.745Z" fill="#D9282F"/>
<path d="M243.632 162.857C243.624 163.395 243.563 163.932 243.45 164.459C243.269 165.566 243.059 166.861 242.831 168.293C242.604 169.724 242.394 171.025 242.218 172.127C242.168 172.664 242.073 173.196 241.934 173.717C241.881 173.18 241.892 172.638 241.968 172.104C242.059 171.11 242.235 169.747 242.479 168.247C242.723 166.748 242.99 165.407 243.201 164.425C243.283 163.887 243.428 163.361 243.632 162.857Z" fill="#263238"/>
<path d="M245.194 194.256C245.194 194.256 246.858 185.298 253.55 183.083C253.602 183.065 253.659 183.061 253.714 183.073C253.768 183.086 253.818 183.113 253.858 183.151C253.898 183.19 253.927 183.24 253.941 183.294C253.954 183.348 253.953 183.405 253.936 183.458C253.493 184.838 251.738 188.854 245.194 194.256Z" fill="#D9282F"/>
<path d="M251.726 185.384C251.467 185.857 251.162 186.304 250.817 186.719L248.472 189.814L246.143 192.921C245.85 193.372 245.517 193.796 245.149 194.188C245.356 193.688 245.623 193.215 245.944 192.779C246.512 191.944 247.284 190.82 248.216 189.61C249.148 188.4 249.994 187.338 250.636 186.565C250.955 186.133 251.32 185.736 251.726 185.384Z" fill="#263238"/>
<path d="M243.388 216.709C243.388 216.709 242.377 207.655 248.136 203.594C248.181 203.559 248.234 203.538 248.29 203.533C248.346 203.527 248.403 203.538 248.453 203.564C248.503 203.589 248.545 203.629 248.573 203.678C248.602 203.726 248.616 203.782 248.614 203.838C248.597 205.298 248.08 209.649 243.388 216.709Z" fill="#D9282F"/>
<path d="M247.08 206.332C246.974 206.86 246.813 207.376 246.597 207.871L245.257 211.517C244.757 212.881 244.308 214.113 243.928 215.164C243.782 215.681 243.592 216.185 243.36 216.669C243.412 216.13 243.53 215.6 243.712 215.09C243.99 214.136 244.422 212.818 244.95 211.398C245.478 209.978 245.995 208.7 246.387 207.786C246.568 207.279 246.8 206.791 247.08 206.332Z" fill="#263238"/>
<path d="M248.426 239.304C248.426 239.304 247.745 230.216 253.64 226.365C253.687 226.333 253.741 226.315 253.797 226.312C253.852 226.31 253.908 226.323 253.957 226.35C254.006 226.377 254.046 226.417 254.074 226.466C254.101 226.515 254.114 226.57 254.112 226.626C254.044 228.086 253.373 232.42 248.426 239.304Z" fill="#D9282F"/>
<path d="M252.47 229.068C252.343 229.593 252.162 230.103 251.931 230.591C251.51 231.624 251.011 232.863 250.46 234.186C249.909 235.509 249.426 236.742 249.005 237.781C248.837 238.294 248.622 238.79 248.364 239.264C248.439 238.727 248.578 238.2 248.778 237.696C249.091 236.753 249.568 235.458 250.147 234.055C250.727 232.652 251.283 231.391 251.709 230.494C251.911 229.993 252.167 229.515 252.47 229.068Z" fill="#263238"/>
<path d="M238.094 166.106C238.094 166.106 230.04 161.88 229.864 154.842C229.863 154.787 229.878 154.733 229.906 154.685C229.934 154.638 229.974 154.598 230.022 154.572C230.07 154.545 230.125 154.532 230.18 154.533C230.235 154.535 230.289 154.552 230.335 154.581C231.534 155.41 234.862 158.273 238.094 166.106Z" fill="#D9282F"/>
<path d="M231.54 157.262C231.918 157.648 232.255 158.073 232.545 158.529C233.204 159.432 233.971 160.5 234.817 161.676L237.089 164.811C237.435 165.223 237.743 165.666 238.009 166.134C237.594 165.789 237.222 165.394 236.901 164.959C236.26 164.197 235.419 163.107 234.533 161.874C233.647 160.642 232.869 159.5 232.335 158.665C232.022 158.226 231.755 157.756 231.54 157.262Z" fill="#263238"/>
<path d="M246.768 184.776C246.768 184.776 238.452 181.055 237.867 174.029C237.862 173.974 237.873 173.919 237.898 173.869C237.923 173.82 237.96 173.778 238.007 173.748C238.054 173.719 238.109 173.703 238.164 173.703C238.219 173.702 238.274 173.717 238.321 173.745C239.565 174.501 243.059 177.148 246.768 184.776Z" fill="#D9282F"/>
<path d="M239.696 176.347C240.097 176.707 240.458 177.109 240.775 177.545L243.24 180.55L245.711 183.543C246.081 183.935 246.416 184.359 246.711 184.81C246.275 184.488 245.878 184.116 245.529 183.702C244.848 182.975 243.939 181.941 242.979 180.766C242.019 179.59 241.179 178.494 240.588 177.693C240.242 177.278 239.943 176.827 239.696 176.347Z" fill="#263238"/>
<path d="M241.968 205.616C241.968 205.616 236.288 198.516 238.941 191.984C238.962 191.933 238.996 191.888 239.041 191.855C239.086 191.822 239.138 191.803 239.194 191.798C239.249 191.793 239.304 191.804 239.354 191.829C239.403 191.853 239.445 191.891 239.474 191.938C240.264 193.171 242.155 197.124 241.968 205.616Z" fill="#D9282F"/>
<path d="M239.514 194.869C239.709 195.374 239.849 195.897 239.935 196.431C240.173 197.522 240.451 198.805 240.758 200.225C241.065 201.645 241.355 202.923 241.593 204.014C241.745 204.532 241.85 205.062 241.906 205.599C241.656 205.116 241.465 204.605 241.338 204.076C241.059 203.117 240.718 201.804 240.4 200.294C240.082 198.783 239.832 197.454 239.673 196.477C239.562 195.948 239.508 195.409 239.514 194.869Z" fill="#263238"/>
<path d="M247.648 230.102C247.648 230.102 239.395 226.245 238.929 219.214C238.924 219.158 238.934 219.101 238.959 219.051C238.984 219 239.023 218.958 239.071 218.928C239.119 218.899 239.174 218.883 239.23 218.883C239.286 218.884 239.342 218.9 239.389 218.93C240.61 219.708 244.058 222.417 247.648 230.102Z" fill="#D9282F"/>
<path d="M240.701 221.554C241.092 221.926 241.445 222.335 241.758 222.775L244.172 225.814L246.591 228.853C246.955 229.25 247.282 229.68 247.568 230.136C247.145 229.805 246.764 229.423 246.432 229C245.756 228.262 244.87 227.211 243.928 226.018C242.985 224.825 242.167 223.718 241.587 222.906C241.24 222.491 240.943 222.037 240.701 221.554Z" fill="#263238"/>
<path d="M264.069 194.295C264.069 194.295 264.069 194.364 264.069 194.494C264.069 194.625 264.069 194.841 264.069 195.062C264.069 195.63 264.012 196.352 263.972 197.272C263.87 199.214 263.717 201.924 263.541 205.161C262.973 208.456 261.269 212.108 258.997 215.658C257.344 218.271 255.589 220.645 254.112 222.854C252.764 224.794 251.553 226.824 250.488 228.932C249.783 230.356 249.212 231.843 248.784 233.374C248.642 233.913 248.528 234.339 248.466 234.629C248.439 234.78 248.399 234.928 248.347 235.072C248.349 234.919 248.368 234.767 248.403 234.618C248.443 234.322 248.528 233.891 248.659 233.34C249.041 231.783 249.584 230.269 250.278 228.824C251.334 226.7 252.543 224.655 253.896 222.707C255.384 220.48 257.105 218.1 258.752 215.505C260.996 211.972 262.666 208.376 263.296 205.133C263.524 201.901 263.711 199.197 263.864 197.255C263.938 196.335 264.001 195.602 264.046 195.051C264.046 194.824 264.086 194.631 264.103 194.483C264.084 194.422 264.072 194.359 264.069 194.295Z" fill="#263238"/>
<path d="M259.156 215.005C259.156 215.005 262.649 206.598 258.258 201.083C258.224 201.039 258.178 201.005 258.126 200.985C258.074 200.966 258.017 200.961 257.963 200.971C257.908 200.982 257.857 201.008 257.816 201.045C257.775 201.083 257.745 201.132 257.73 201.185C257.338 202.594 256.617 206.916 259.156 215.005Z" fill="#D9282F"/>
<path d="M258.52 204.02C258.67 204.538 258.763 205.072 258.798 205.61C258.923 206.599 259.059 207.968 259.167 209.484C259.275 211.001 259.326 212.375 259.326 213.375C259.36 213.915 259.328 214.456 259.23 214.988C259.131 214.458 259.084 213.92 259.088 213.381C259.014 212.245 258.923 210.955 258.826 209.507C258.73 208.059 258.639 206.746 258.559 205.633C258.493 205.098 258.48 204.558 258.52 204.02Z" fill="#263238"/>
<g opacity="0.3">
<path d="M259.156 215.005C259.156 215.005 262.649 206.598 258.258 201.083C258.224 201.039 258.178 201.005 258.126 200.985C258.074 200.966 258.017 200.961 257.963 200.971C257.908 200.982 257.857 201.008 257.816 201.045C257.775 201.083 257.745 201.132 257.73 201.185C257.338 202.594 256.617 206.916 259.156 215.005Z" fill="black"/>
</g>
<path d="M248.335 235.277C248.335 235.277 251.136 226.609 246.308 221.474C246.27 221.433 246.222 221.404 246.169 221.388C246.116 221.373 246.059 221.373 246.006 221.387C245.952 221.402 245.904 221.431 245.866 221.471C245.828 221.512 245.802 221.562 245.791 221.616C245.518 223.048 245.149 227.421 248.335 235.277Z" fill="#D9282F"/>
<path d="M246.807 224.36C247.004 224.865 247.141 225.391 247.216 225.928C247.421 226.899 247.665 228.256 247.898 229.756C248.131 231.255 248.29 232.624 248.375 233.618C248.449 234.155 248.458 234.698 248.403 235.237C248.269 234.715 248.177 234.183 248.131 233.647C247.966 232.539 247.773 231.244 247.563 229.807C247.353 228.37 247.148 227.075 246.995 225.967C246.88 225.439 246.817 224.901 246.807 224.36Z" fill="#263238"/>
<g opacity="0.3">
<path d="M248.335 235.277C248.335 235.277 251.136 226.609 246.308 221.474C246.27 221.433 246.222 221.404 246.169 221.388C246.116 221.373 246.059 221.373 246.006 221.387C245.952 221.402 245.904 221.431 245.866 221.471C245.828 221.512 245.802 221.562 245.791 221.616C245.518 223.048 245.149 227.421 248.335 235.277Z" fill="black"/>
</g>
<path d="M263.609 204.73C263.609 204.73 271.067 199.504 270.317 192.495C270.311 192.44 270.29 192.388 270.256 192.344C270.223 192.3 270.178 192.266 270.126 192.246C270.074 192.226 270.018 192.221 269.964 192.23C269.909 192.24 269.858 192.265 269.817 192.302C268.732 193.279 265.824 196.528 263.609 204.73Z" fill="#D9282F"/>
<g opacity="0.3">
<path d="M263.609 204.73C263.609 204.73 271.067 199.504 270.317 192.495C270.311 192.44 270.29 192.388 270.256 192.344C270.223 192.3 270.178 192.266 270.126 192.246C270.074 192.226 270.018 192.221 269.964 192.23C269.909 192.24 269.858 192.265 269.817 192.302C268.732 193.279 265.824 196.528 263.609 204.73Z" fill="black"/>
</g>
<path d="M268.965 195.114C268.817 195.634 268.609 196.135 268.346 196.608C267.92 197.505 267.301 198.732 266.579 200.072C265.858 201.413 265.165 202.6 264.631 203.441C264.368 203.913 264.05 204.351 263.683 204.747C263.882 204.247 264.129 203.768 264.421 203.316C264.955 202.333 265.585 201.186 266.278 199.908L268.13 196.5C268.363 196.012 268.642 195.547 268.965 195.114Z" fill="#263238"/>
<path d="M251.346 226.683C251.346 226.683 260.343 225.28 262.751 218.657C262.771 218.606 262.776 218.55 262.765 218.495C262.755 218.441 262.73 218.391 262.693 218.35C262.656 218.309 262.609 218.279 262.556 218.263C262.503 218.247 262.447 218.246 262.393 218.26C260.99 218.68 256.923 220.299 251.346 226.683Z" fill="#D9282F"/>
<g opacity="0.3">
<path d="M251.346 226.683C251.346 226.683 260.343 225.28 262.751 218.657C262.771 218.606 262.776 218.55 262.765 218.495C262.755 218.441 262.73 218.391 262.693 218.35C262.656 218.309 262.609 218.279 262.556 218.263C262.503 218.247 262.447 218.246 262.393 218.26C260.99 218.68 256.923 220.299 251.346 226.683Z" fill="black"/>
</g>
<path d="M260.388 220.412C260.024 220.81 259.616 221.166 259.173 221.474C258.395 222.099 257.298 222.928 256.066 223.814C254.833 224.701 253.68 225.456 252.828 225.979C252.384 226.288 251.903 226.542 251.397 226.734C251.8 226.375 252.235 226.053 252.698 225.774L255.867 223.536L259.031 221.264C259.452 220.933 259.907 220.647 260.388 220.412Z" fill="#263238"/>
<path d="M242.757 243.246L240.133 260.911H256.492L254.373 243.246H242.757Z" fill="#455A64"/>
<path d="M255.032 248.716C255.032 248.813 252.078 248.886 248.438 248.886C244.797 248.886 241.837 248.813 241.837 248.716C244.033 248.548 246.236 248.491 248.438 248.546C250.637 248.491 252.838 248.548 255.032 248.716Z" fill="#263238"/>
<path d="M255.35 250.124C255.35 250.221 252.3 250.295 248.534 250.295C244.768 250.295 241.718 250.221 241.718 250.124C241.718 250.028 244.768 249.954 248.534 249.954C252.3 249.954 255.35 250.028 255.35 250.124Z" fill="#263238"/>
<path d="M191.74 71.8746C191.74 71.8746 191.586 71.8746 191.291 71.8746C190.86 71.849 190.427 71.849 189.996 71.8746C188.328 71.9722 186.689 72.3565 185.151 73.0106C182.713 74.0323 180.592 75.6851 179.005 77.7988C178.027 79.1186 177.299 80.6068 176.858 82.1895C175.864 85.9594 176.401 89.9694 178.352 93.345C178.884 94.2795 179.533 95.1423 180.283 95.9123C181.04 96.7281 181.922 97.4184 182.896 97.9571C183.895 98.5195 185.027 98.8039 186.173 98.7807C187.355 98.7666 188.489 98.3083 189.349 97.4971C189.764 97.0616 190.09 96.5486 190.307 95.9872C190.525 95.4258 190.629 94.8272 190.615 94.2254C190.607 92.9751 190.21 91.7584 189.479 90.7435C188.008 88.6703 185.622 87.2787 183.084 86.529C180.451 85.7895 177.67 85.7504 175.018 86.4154C173.664 86.7676 172.359 87.2866 171.133 87.9603C169.895 88.6589 168.771 89.5418 167.799 90.5788C167.566 90.8458 167.299 91.09 167.089 91.3854L166.447 92.2487C166.057 92.8571 165.707 93.4909 165.402 94.1459C164.794 95.4756 164.379 96.8852 164.169 98.332C163.757 101.222 164.15 104.171 165.305 106.852C166.409 109.472 168.332 111.664 170.786 113.1C171.976 113.78 173.304 114.182 174.671 114.276C176.012 114.351 177.345 114.031 178.505 113.356C179.657 112.719 180.567 111.721 181.096 110.516C181.594 109.328 181.628 107.996 181.192 106.784C180.743 105.614 180.009 104.576 179.056 103.762C178.132 102.964 177.067 102.345 175.915 101.939C173.669 101.231 171.266 101.189 168.997 101.82C166.874 102.395 164.924 103.481 163.317 104.983C161.854 106.385 160.739 108.111 160.062 110.021C158.879 113.336 158.934 116.967 160.216 120.245C161.216 122.693 162.825 124.843 164.89 126.493C166.192 127.537 167.641 128.381 169.19 128.998C169.724 129.197 170.139 129.345 170.423 129.424L170.843 129.561C170.843 129.561 170.695 129.532 170.411 129.453C169.992 129.34 169.578 129.206 169.173 129.049C167.603 128.46 166.135 127.628 164.822 126.584C162.722 124.936 161.081 122.774 160.057 120.308C158.752 116.999 158.686 113.33 159.869 109.976C160.547 108.036 161.674 106.285 163.158 104.864C164.788 103.332 166.767 102.22 168.923 101.626C171.24 100.98 173.694 101.02 175.989 101.74C177.175 102.153 178.271 102.788 179.221 103.609C180.211 104.449 180.973 105.525 181.436 106.738C181.903 108.005 181.883 109.4 181.38 110.652C180.819 111.905 179.869 112.943 178.67 113.611C177.467 114.313 176.085 114.648 174.694 114.577C173.294 114.479 171.934 114.063 170.718 113.361C168.208 111.905 166.237 109.675 165.101 107.005C163.921 104.275 163.516 101.272 163.931 98.3263C164.147 96.8502 164.572 95.4122 165.192 94.055C165.504 93.3861 165.86 92.739 166.259 92.1181L166.918 91.2377C167.128 90.9367 167.401 90.6697 167.64 90.4084C168.634 89.3518 169.783 88.4517 171.048 87.7388C172.302 87.0522 173.638 86.5255 175.024 86.1711C177.727 85.4937 180.56 85.5348 183.243 86.2904C185.833 87.0629 188.258 88.4772 189.786 90.6243C190.554 91.6815 190.971 92.9528 190.979 94.2595C191.006 95.5454 190.522 96.7896 189.633 97.7186C188.724 98.5716 187.528 99.0521 186.281 99.0647C185.089 99.0918 183.911 98.7954 182.873 98.2071C181.876 97.6569 180.975 96.9492 180.204 96.1111C179.443 95.3239 178.785 94.4441 178.244 93.4927C176.258 90.0544 175.719 85.9684 176.745 82.1327C177.199 80.5317 177.944 79.028 178.943 77.6966C180.559 75.5668 182.716 73.9094 185.191 72.897C186.741 72.2556 188.393 71.894 190.07 71.8291C190.505 71.8004 190.941 71.8004 191.376 71.8291L191.74 71.8746Z" fill="#263238"/>
<path d="M210.705 128.708H131.066V190.132H210.705V128.708Z" fill="#D9282F"/>
<path d="M131.066 128.708L145.777 142.431H224.065L210.705 128.708H131.066Z" fill="#D9282F"/>
<path d="M131.066 128.709L210.728 128.567H210.791L210.836 128.607L224.059 142.188L224.195 142.33L224.44 142.579H224.087L145.8 142.517H145.766L131.066 128.709L145.834 142.341H145.772L224.059 142.284L223.957 142.534L223.815 142.392L210.597 128.811L210.7 128.857L131.066 128.709Z" fill="#263238"/>
<path d="M154.99 157.035C154.559 157.05 154.151 157.235 153.854 157.548C153.557 157.862 153.395 158.279 153.403 158.711C153.411 159.142 153.588 159.554 153.896 159.856C154.204 160.159 154.618 160.328 155.05 160.328C155.481 160.328 155.896 160.159 156.204 159.856C156.512 159.554 156.689 159.142 156.697 158.711C156.705 158.279 156.543 157.862 156.246 157.548C155.949 157.235 155.541 157.05 155.109 157.035" fill="#263238"/>
<path d="M173.808 157.035C173.378 157.051 172.972 157.235 172.677 157.548C172.382 157.86 172.221 158.276 172.229 158.706C172.237 159.136 172.414 159.546 172.721 159.847C173.028 160.148 173.441 160.317 173.871 160.317C174.3 160.317 174.713 160.148 175.02 159.847C175.327 159.546 175.504 159.136 175.512 158.706C175.52 158.276 175.359 157.86 175.064 157.548C174.769 157.235 174.363 157.051 173.933 157.035" fill="#263238"/>
<path d="M173.916 171.735C173.588 170.48 173.054 169.288 172.337 168.207C171.539 167.052 170.515 166.07 169.326 165.322C167.893 164.37 166.22 163.841 164.5 163.794C162.78 163.746 161.081 164.184 159.597 165.055C158.371 165.739 157.295 166.663 156.433 167.77C155.656 168.811 155.059 169.974 154.666 171.212C154.671 171.12 154.686 171.028 154.712 170.94C154.766 170.684 154.836 170.431 154.922 170.184C155.233 169.272 155.688 168.415 156.268 167.645C157.124 166.486 158.214 165.518 159.466 164.805C160.988 163.896 162.738 163.44 164.51 163.488C166.282 163.536 168.004 164.088 169.474 165.078C170.683 165.855 171.716 166.877 172.507 168.077C173.047 168.878 173.455 169.76 173.717 170.69C173.787 170.942 173.842 171.198 173.882 171.456C173.901 171.548 173.913 171.641 173.916 171.735Z" fill="#263238"/>
<path opacity="0.5" d="M131.248 129.385L145.334 147.243H210.705V142.432H145.777L131.248 129.385Z" fill="black"/>
<path d="M195 189.996C194.921 189.996 194.852 179.312 194.852 166.14C194.852 152.968 194.921 142.284 195 142.284C195.08 142.284 195.153 152.962 195.153 166.14C195.153 179.317 195.085 189.996 195 189.996Z" fill="#263238"/>
<path d="M207.507 176.068H200.487V184.003H207.507V176.068Z" fill="#F5F5F5"/>
<path d="M131.066 128.708L114.719 142.431H131.066V128.708Z" fill="#D9282F"/>
<g opacity="0.4">
<path d="M131.066 128.708L114.719 142.431H131.066V128.708Z" fill="black"/>
</g>
<path d="M213.057 190.132H121.49V260.757H213.057V190.132Z" fill="#D9282F"/>
<path opacity="0.3" d="M213.057 190.132H121.49V260.757H213.057V190.132Z" fill="white"/>
<path d="M190.115 260.258C190.036 260.258 189.968 244.518 189.968 225.104C189.968 205.69 190.036 189.945 190.115 189.945C190.195 189.945 190.263 205.684 190.263 225.104C190.263 244.524 190.195 260.258 190.115 260.258Z" fill="#263238"/>
<path d="M205.292 244.683H198.272V252.618H205.292V244.683Z" fill="#F5F5F5"/>
<path d="M159.824 190.32H149.424V205.389H159.824V190.32Z" fill="#263238"/>
<path d="M159.824 245.478H149.424V260.547H159.824V245.478Z" fill="#263238"/>
<path d="M212.262 190.132H212.023H211.336L208.695 190.16L198.965 190.206L166.878 190.28L134.781 190.24L125.057 190.195L122.415 190.166L125.057 190.138L134.781 190.092L166.878 190.047L198.965 190.092L208.695 190.138L211.336 190.166H212.023L212.262 190.132Z" fill="#263238"/>
<path d="M55.3346 67.8591L45.3605 65.4053H45.4343C42.859 67.0435 39.8809 67.9379 36.8291 67.9897C35.0224 67.998 33.2247 67.7357 31.4956 67.2116C28.4558 66.2355 25.7589 64.4096 23.7237 61.9497C21.6885 59.4897 20.4001 56.4985 20.0107 53.3297C19.7048 50.933 19.93 48.4985 20.6701 46.1986C21.4102 43.8988 22.6472 41.7898 24.2934 40.0214C25.1587 39.0709 26.1286 38.2211 27.1845 37.4881C27.7184 37.153 28.2523 36.8065 28.809 36.5169L29.6553 36.1079L30.0756 35.9034L30.5187 35.7444C32.7994 34.8603 35.2461 34.4861 37.6868 34.6481C40.9579 34.8605 44.0929 36.0365 46.6967 38.0277C49.3006 40.019 51.2567 42.7365 52.3185 45.8377C52.9084 47.5726 53.219 49.3901 53.2387 51.2224C53.2529 54.2675 52.4253 57.2573 50.8474 59.8617V59.7708C53.6192 64.7749 55.0165 67.3025 55.3289 67.8591C55.0052 67.2911 53.5567 64.8089 50.6883 59.856V59.8105V59.7651C52.2096 57.1859 52.9954 54.2393 52.9604 51.2451C52.934 49.4421 52.6195 47.655 52.0288 45.9513C50.9785 42.9135 49.0554 40.2531 46.5002 38.3031C43.945 36.3531 40.8714 35.2003 37.6641 34.9889C35.2714 34.833 32.8735 35.2013 30.6379 36.0681L30.2063 36.2215L29.7916 36.426L28.9623 36.8236C28.3944 37.1133 27.8945 37.4484 27.3663 37.7778C26.3307 38.4911 25.3781 39.318 24.5263 40.2429C22.9102 41.979 21.6955 44.0491 20.9682 46.3066C20.2409 48.5642 20.0187 50.954 20.3174 53.3069C20.844 57.6176 23.0556 61.5446 26.4688 64.2296C27.9948 65.4387 29.7266 66.3623 31.5808 66.956C33.2788 67.4809 35.0462 67.747 36.8235 67.7455C39.8387 67.7132 42.7866 66.8504 45.3435 65.252H45.3775H45.44L55.3346 67.8591Z" fill="#263238"/>
<path d="M35.216 43.9063L35.7215 52.2559C35.7417 52.5853 35.8816 52.8959 36.1149 53.1292C36.3482 53.3625 36.6588 53.5024 36.9882 53.5226C37.3347 53.5422 37.6756 53.4283 37.9407 53.2043C38.2059 52.9804 38.3752 52.6633 38.4138 52.3184L39.3397 43.9518C39.3558 43.8021 39.3399 43.6507 39.2931 43.5076C39.2462 43.3645 39.1695 43.233 39.068 43.1219C38.9665 43.0107 38.8425 42.9223 38.7043 42.8627C38.566 42.8031 38.4167 42.7735 38.2662 42.776H36.2384C36.0961 42.7803 35.9561 42.8132 35.8269 42.8729C35.6977 42.9326 35.5818 43.0178 35.4863 43.1233C35.3909 43.2289 35.3177 43.3527 35.2712 43.4872C35.2248 43.6218 35.206 43.7643 35.216 43.9063Z" fill="#D9282F"/>
<path d="M39.1921 58.1861C39.065 58.5675 38.8277 58.9027 38.5101 59.1493C38.1926 59.3958 37.8091 59.5428 37.4081 59.5715C37.007 59.6002 36.6065 59.5093 36.2571 59.3105C35.9077 59.1116 35.6251 58.8136 35.445 58.4542C35.2649 58.0948 35.1953 57.69 35.2452 57.2911C35.295 56.8921 35.462 56.5169 35.7251 56.2129C35.9881 55.9088 36.3353 55.6895 36.7229 55.5828C37.1105 55.476 37.5211 55.4865 37.9027 55.613C38.1565 55.6971 38.3911 55.8304 38.5933 56.0053C38.7954 56.1802 38.9611 56.3932 39.0809 56.6322C39.2006 56.8712 39.2721 57.1314 39.2912 57.3981C39.3103 57.6647 39.2766 57.9325 39.1921 58.1861Z" fill="#D9282F"/>
</svg>
